<svg width="37" height="24" viewBox="0 0 37 24" fill="none" xmlns="http://www.w3.org/2000/svg">
<mask id="mask0_9544_239" style="mask-type:luminance" maskUnits="userSpaceOnUse" x="16" y="19" width="5" height="5">
<path d="M16.3654 19.017H20.1979V24H16.3654V19.017Z" fill="white"/>
</mask>
<g mask="url(#mask0_9544_239)">
<path d="M18.36 19.1783C18.2621 19.5456 17.5527 20.1329 16.5739 20.6961L16.9159 21.3318L18.36 23.9275L19.8052 21.3318L20.1473 20.6961C19.1684 20.1329 18.4579 19.5456 18.36 19.1783Z" fill="#6962FB"/>
</g>
<mask id="mask1_9544_239" style="mask-type:luminance" maskUnits="userSpaceOnUse" x="0" y="0" width="37" height="21">
<path d="M0 0.959999H36.645V20.1963H0V0.959999Z" fill="white"/>
</mask>
<g mask="url(#mask1_9544_239)">
<path d="M36.6473 0.988785L18.3599 6.49687L0.0737022 0.988785C0.0241835 1.16037 0 1.33196 0 1.47821C0 2.21293 0.489429 2.92347 1.22415 3.14342L2.13045 3.4129L13.3171 6.79053C15.8149 7.54943 17.4306 9.82614 17.4789 12.2986C17.4789 12.3481 17.4789 12.3965 17.4789 12.4702C17.4789 13.4249 17.2348 14.3796 16.72 15.31C15.4475 17.5626 12.7793 18.7372 10.2815 18.1257C8.6174 17.733 7.24585 16.6804 6.43858 15.188C5.70386 13.8164 5.53227 12.2249 5.99752 10.7324C6.12074 10.3651 6.26699 9.99773 6.43858 9.65455C4.60293 11.0019 4.0398 13.9396 4.74919 15.6774C4.99448 16.191 5.28813 16.6804 5.65549 17.1457C6.29117 17.9783 7.12378 18.6635 8.07845 19.1529C9.2289 19.7414 10.4289 20.035 11.6288 20.035C14.4191 20.035 17.0379 18.4677 18.3599 15.9469C19.6819 18.4677 22.3018 20.035 25.0921 20.035C26.2679 20.035 27.4667 19.7656 28.6172 19.1529C29.5477 18.6635 30.3803 17.9783 31.0413 17.1457C31.4087 16.6804 31.7023 16.191 31.9464 15.6774C32.657 13.9143 32.0939 11.0019 30.2582 9.65455C30.454 9.99773 30.6002 10.3651 30.6981 10.7324C31.1634 12.2249 30.9918 13.8164 30.2582 15.188C29.4498 16.6804 28.0794 17.733 26.4142 18.1257C23.8933 18.713 21.2493 17.5372 19.9756 15.31C19.4378 14.3796 19.2167 13.4007 19.2167 12.4702C19.2167 12.4218 19.2167 12.3723 19.2167 12.2986C19.2662 9.82614 20.8819 7.54943 23.3786 6.79053L34.5663 3.4129L35.4968 3.14342C36.2557 2.92347 36.721 2.23712 36.721 1.47821C36.721 1.30778 36.6956 1.16037 36.6473 0.988785Z" fill="#6962FB"/>
</g>
<path d="M25.0922 14.6249C23.868 14.6249 22.8892 13.6448 22.8892 12.4218C22.8892 11.1977 23.868 10.2177 25.0922 10.2177C25.3375 10.2177 25.6069 10.2672 25.8269 10.3409C25.4595 10.463 25.1901 10.8062 25.1901 11.2219C25.1901 11.7355 25.6069 12.1524 26.1205 12.1524C26.5858 12.1524 26.9773 11.8092 27.0269 11.3681C27.1973 11.6871 27.2952 12.0545 27.2952 12.446C27.2952 13.6448 26.3163 14.6249 25.0922 14.6249ZM23.9417 8.23464C21.7387 8.89566 20.343 11.1482 20.8577 13.3765C21.323 15.4079 23.1345 16.73 25.068 16.73C25.4837 16.73 25.9006 16.6805 26.3163 16.5342C27.4184 16.191 28.3235 15.4563 28.8867 14.4291C29.4256 13.4007 29.5477 12.2503 29.2057 11.124C28.9362 10.2177 28.3731 9.43461 27.6142 8.89566L29.3277 8.38205L31.1392 7.8431L32.1422 7.54944C32.9011 7.32949 33.3664 6.64429 33.3664 5.88538C33.3664 5.7138 33.3422 5.54221 33.2938 5.37062L23.9417 8.23464Z" fill="#6962FB"/>
<path d="M11.6288 10.2177C11.8729 10.2177 12.1424 10.2672 12.3624 10.3409C11.995 10.463 11.7267 10.8062 11.7267 11.2219C11.7267 11.7355 12.1424 12.1524 12.656 12.1524C13.1213 12.1524 13.5128 11.8092 13.5623 11.3681C13.7339 11.6871 13.8318 12.0545 13.8318 12.446C13.8318 13.6702 12.8518 14.649 11.6288 14.649C10.4046 14.649 9.42464 13.6702 9.42464 12.446C9.42464 11.1977 10.4046 10.2177 11.6288 10.2177ZM5.53224 7.86843L7.3437 8.40622L9.05728 8.92099C8.29838 9.45878 7.76058 10.243 7.46693 11.1482C7.12375 12.2503 7.24582 13.4249 7.78477 14.4533C8.32371 15.4816 9.2542 16.2152 10.3551 16.5584C10.7709 16.6804 11.1877 16.7542 11.6035 16.7542C13.5623 16.7542 15.3496 15.4321 15.8149 13.4007C16.3285 11.1482 14.9327 8.92099 12.7297 8.25997L3.37876 5.39595C3.32924 5.56639 3.30505 5.73797 3.30505 5.90956C3.30505 6.64428 3.79448 7.35366 4.5292 7.57477L5.53224 7.86843Z" fill="#6962FB"/>
</svg>
