<svg width="65" height="31" viewBox="0 0 65 31" fill="none" xmlns="http://www.w3.org/2000/svg">
    <path
            d="M14.5184 16.8834C14.4067 16.3083 14.2279 15.729 13.9776 15.1623C13.7273 14.5872 13.3786 14.0205 12.9495 13.479C12.5114 12.9291 11.9616 12.4337 11.309 12.0139C10.6564 11.5941 9.87862 11.2541 8.99804 11.0064C8.11746 10.7587 7.08489 10.6328 5.9227 10.6328H0V26.3161H5.56064C7.03125 26.3161 8.34989 26.0936 9.4808 25.6528C10.6117 25.212 11.5727 24.6201 12.3416 23.8939C13.1104 23.1635 13.696 22.3197 14.0893 21.3878C14.4827 20.4558 14.6794 19.4735 14.6794 18.4786C14.6838 17.9875 14.6257 17.4544 14.5184 16.8834ZM2.82502 13.1557H5.76625C7.00443 13.1557 8.02359 13.3488 8.78795 13.7266C9.55678 14.1087 10.1647 14.5746 10.5938 15.1161C11.0274 15.6619 11.3224 16.2454 11.4789 16.8457C11.6398 17.4669 11.7202 18.0085 11.7202 18.4661C11.7202 19.3518 11.5504 20.1326 11.2107 20.7917C10.871 21.4507 10.4061 22.0049 9.82498 22.4414C9.23942 22.8822 8.54657 23.218 7.7688 23.4405C6.97762 23.663 6.12832 23.7806 5.24327 23.7806H2.82502V13.1557Z"
            fill="#2F2F2F"/>
    <path
            d="M35.3416 15.2287C34.9125 14.2296 34.309 13.3522 33.5491 12.6176C32.7892 11.883 31.8639 11.2953 30.8001 10.8797C29.7362 10.4599 28.5562 10.25 27.2956 10.25C26.0351 10.25 24.855 10.4641 23.7912 10.8797C22.7273 11.2995 21.8021 11.883 21.0422 12.6176C20.2823 13.3522 19.6788 14.2338 19.2497 15.2287C18.8206 16.2236 18.6016 17.315 18.6016 18.4736C18.6016 19.6281 18.8206 20.7195 19.2497 21.7186C19.6788 22.7135 20.2823 23.5909 21.0422 24.3297C21.8021 25.0643 22.7273 25.652 23.7912 26.0718C24.855 26.4916 26.0306 26.7015 27.2956 26.7015C28.5562 26.7015 29.7362 26.4874 30.8001 26.0718C31.8639 25.652 32.7892 25.0685 33.5491 24.3297C34.309 23.5951 34.908 22.7177 35.3416 21.7186C35.7707 20.7195 35.9897 19.6281 35.9897 18.4736C35.9897 17.315 35.7707 16.2236 35.3416 15.2287ZM33.0306 18.4694C33.0306 19.2502 32.892 20.0017 32.6194 20.6943C32.3467 21.387 31.9578 21.9915 31.4617 22.4994C30.9655 23.0031 30.362 23.4145 29.6603 23.7168C28.9674 24.0148 28.1718 24.166 27.3046 24.166C26.4374 24.166 25.6418 24.0148 24.9489 23.7168C24.2471 23.4145 23.6437 23.0031 23.1475 22.4994C22.6514 21.9915 22.2625 21.387 21.9898 20.6943C21.7171 20.0017 21.5786 19.2502 21.5786 18.4694C21.5786 17.6886 21.7171 16.9372 21.9898 16.2446C22.258 15.5561 22.6514 14.9474 23.1475 14.4395C23.6482 13.9315 24.2516 13.5243 24.9489 13.2221C25.6418 12.924 26.4374 12.7729 27.3046 12.7729C28.1762 12.7729 28.9674 12.924 29.6603 13.2263C30.3576 13.5285 30.9655 13.9357 31.4617 14.4437C31.9578 14.9516 32.3512 15.5603 32.6194 16.2488C32.892 16.9372 33.0306 17.6886 33.0306 18.4694Z"
            fill="#2F2F2F"/>
    <path
            d="M47.909 17.0351L44.2526 17.0141L46.9033 10.457H43.2245L39.6306 19.2516C39.6128 19.2852 39.6396 19.3271 39.6798 19.3271L42.8937 19.3481L40.4352 29.9897C40.4218 30.0485 40.5112 30.0779 40.5425 30.0233L47.9627 17.1107C47.9761 17.0771 47.9492 17.0351 47.909 17.0351Z"
            fill="#2F2F2F"/>
    <path
            d="M1.34993 4.27315H4.98848V3.06416H1.34993V1.2129H5.25668V0.00390625H0V7.49291H5.45336V6.28813H1.34993V4.27315Z"
            fill="#2F2F2F"/>
    <path
            d="M11.1375 5.61227L9.01874 0.100462L8.98298 0.00390625H7.44531L10.5206 7.49291H11.7052L14.8476 0.00390625H13.377L11.1375 5.61227Z"
            fill="#2F2F2F"/>
    <path
            d="M18.0687 4.27315H21.7072V3.06416H18.0687V1.2129H21.9754V0.00390625H16.7188V7.49291H22.1721V6.28813H18.0687V4.27315Z"
            fill="#2F2F2F"/>
    <path
            d="M29.2599 3.97539C29.5102 3.84945 29.7248 3.68994 29.8991 3.50523C30.0734 3.32052 30.2075 3.11063 30.3014 2.87975C30.3953 2.64887 30.44 2.40959 30.44 2.16192C30.44 1.92684 30.3998 1.67916 30.3238 1.42729C30.2478 1.16702 30.1047 0.92774 29.9036 0.717846C29.7069 0.507952 29.4342 0.335835 29.0945 0.201503C28.7593 0.0671706 28.3302 0 27.8206 0H24.9688V7.48902H26.3187V4.31543H27.2306L29.1795 7.48902H30.8468L28.6475 4.17269C28.8755 4.13491 29.0766 4.06774 29.2599 3.97539ZM28.5939 2.9847C28.4553 3.05606 28.2944 3.10643 28.1156 3.13581C27.9279 3.1652 27.7312 3.1778 27.539 3.1778H26.3321V1.15023H27.539C27.7312 1.15023 27.9279 1.16702 28.1156 1.19221C28.2944 1.22159 28.4553 1.27196 28.5939 1.34333C28.7235 1.41049 28.8263 1.51124 28.9068 1.64137C28.9873 1.77151 29.0275 1.94782 29.0275 2.16192C29.0275 2.38021 28.9873 2.55231 28.9068 2.68245C28.8263 2.81678 28.7235 2.91333 28.5939 2.9847Z"
            fill="#2F2F2F"/>
    <path
            d="M35.4757 3.03898L33.4687 0.00390625H31.7656L34.7963 4.32352V7.49291H36.1462V4.32352L39.1813 0.00390625H37.5408L35.4757 3.03898Z"
            fill="#2F2F2F"/>
    <path
            d="M47.9705 2.17031C47.8498 1.89745 47.6845 1.62458 47.4788 1.36431C47.2732 1.09984 47.0095 0.86477 46.6966 0.663272C46.3837 0.461774 46.0127 0.302257 45.5925 0.180518C45.1723 0.0629779 44.6762 0 44.1264 0H41.2969V7.48902H43.952C44.6538 7.48902 45.2841 7.38407 45.8249 7.17418C46.3658 6.96429 46.8262 6.68303 47.1928 6.33461C47.5593 5.98618 47.8409 5.58318 48.0286 5.13821C48.2164 4.69323 48.3103 4.22307 48.3103 3.74871C48.3103 3.51783 48.2834 3.26175 48.2298 2.99309C48.1762 2.72023 48.0912 2.44317 47.9705 2.17031ZM42.6468 1.21319H44.0504C44.6404 1.21319 45.1276 1.30554 45.4942 1.48605C45.8607 1.66656 46.1513 1.89325 46.3569 2.14932C46.5625 2.40959 46.7055 2.68665 46.7815 2.97631C46.8575 3.27016 46.8977 3.53462 46.8977 3.74871C46.8977 4.1727 46.8173 4.54631 46.6519 4.86115C46.491 5.17599 46.2675 5.44046 45.9903 5.65035C45.7132 5.86024 45.3824 6.02395 45.0069 6.1289C44.6315 6.23385 44.2247 6.28842 43.8001 6.28842H42.6468V1.21319Z"
            fill="#2F2F2F"/>
    <path
            d="M52.7634 0.00390625L49.25 7.49291H50.8055L53.2864 1.77121L55.7717 7.49291H57.3228L53.9077 0.00390625H52.7634Z"
            fill="#2F2F2F"/>
    <path
            d="M60.9366 3.03898L58.9296 0.00390625H57.2266L60.2572 4.32352V7.49291H61.6071V4.32352L64.6422 0.00390625H63.0018L60.9366 3.03898Z"
            fill="#2F2F2F"/>
    <path
            d="M56.0516 23.785V19.562H63.6684V17.0391H56.0516V13.156H64.2361V10.6289H53.2266V26.3122H64.6429V23.785H56.0516Z"
            fill="#2F2F2F"/>
</svg>
