<svg width="100" height="32" viewBox="0 0 100 32" fill="none" xmlns="http://www.w3.org/2000/svg">
<path fill-rule="evenodd" clip-rule="evenodd" d="M8.33561 3.33325H18.333V7.17411H14.799C15.3679 8.21818 15.6911 9.41539 15.6911 10.6881C15.6911 14.7501 12.3982 18.0429 8.33628 18.0429C4.27432 18.0429 0.981445 14.7501 0.981445 10.6881C0.981445 6.62635 4.27396 3.33362 8.33561 3.33325ZM8.33628 14.2021C10.277 14.2021 11.8503 12.6288 11.8503 10.6881C11.8503 8.74737 10.277 7.17411 8.33628 7.17411H8.33561C6.3952 7.17447 4.82231 8.7476 4.82231 10.6881C4.82231 12.6288 6.39557 14.2021 8.33628 14.2021Z" fill="#079455"/>
<path opacity="0.7" d="M8.33591 28.6666C6.96565 28.6666 5.72384 28.4102 4.6105 27.8974C3.49716 27.406 2.60863 26.7117 1.94491 25.8144C1.3026 24.917 0.981445 23.8915 0.981445 22.7378C0.981445 21.8405 1.10991 21.1034 1.36683 20.5266C1.62376 19.9497 2.00914 19.3942 2.52299 18.8601L5.70243 20.9111C5.48833 21.1034 5.32775 21.3277 5.2207 21.5841C5.11365 21.8405 5.06012 22.161 5.06012 22.5455C5.06012 23.2506 5.34916 23.8061 5.92724 24.212C6.52055 24.6349 7.32356 24.8485 8.33629 24.8529C9.34901 24.8485 10.152 24.6349 10.7453 24.212C11.3234 23.8061 11.6124 23.2506 11.6124 22.5455C11.6124 22.161 11.5589 21.8405 11.4519 21.5841C11.3448 21.3277 11.1842 21.1034 10.9701 20.9111L14.1496 18.8601C14.6634 19.3942 15.0488 19.9497 15.3057 20.5266C15.5627 21.1034 15.6911 21.8405 15.6911 22.7378C15.6911 23.8915 15.37 24.917 14.7277 25.8144C14.0639 26.7117 13.1754 27.406 12.0621 27.8974C10.9487 28.4102 9.70617 28.6666 8.33591 28.6666Z" fill="#079455"/>
<path fill-rule="evenodd" clip-rule="evenodd" d="M59.3583 21.5707C60.0303 21.9813 60.7957 22.1867 61.6543 22.1867C62.2766 22.1867 62.8428 22.0622 63.353 21.8133C63.6215 21.6758 63.8642 21.5159 64.081 21.3335V22H66.881V8.448H64.025V13.517C63.8178 13.3537 63.5876 13.2133 63.3343 13.096C62.8366 12.8596 62.2766 12.7413 61.6543 12.7413C60.7957 12.7413 60.0303 12.9467 59.3583 13.3573C58.6988 13.768 58.1761 14.328 57.7903 15.0373C57.417 15.7467 57.2303 16.5556 57.2303 17.464C57.2303 18.3724 57.417 19.1813 57.7903 19.8907C58.1761 20.6 58.6988 21.16 59.3583 21.5707ZM63.2223 19.3493C62.9237 19.5236 62.569 19.6107 62.1583 19.6107C61.7726 19.6107 61.4241 19.5173 61.113 19.3307C60.8019 19.144 60.5592 18.8889 60.385 18.5653C60.2108 18.2418 60.1237 17.8747 60.1237 17.464C60.1237 17.0533 60.2108 16.6862 60.385 16.3627C60.5717 16.0391 60.8143 15.784 61.113 15.5973C61.4241 15.4107 61.7788 15.3173 62.177 15.3173C62.5752 15.3173 62.9237 15.4107 63.2223 15.5973C63.5335 15.784 63.7699 16.0391 63.9317 16.3627C64.1059 16.6738 64.193 17.0409 64.193 17.464C64.193 17.8871 64.1059 18.2604 63.9317 18.584C63.7575 18.9076 63.521 19.1627 63.2223 19.3493Z" fill="#0A0D12"/>
<path d="M26.5143 21.6827C27.3606 22.0311 28.2628 22.2053 29.221 22.2053C30.5277 22.2053 31.6788 21.9316 32.6743 21.384C33.6823 20.8364 34.4663 20.0276 35.0263 18.9573C35.5988 17.8747 35.885 16.5431 35.885 14.9627V14.5333H28.9597V17.016L32.7458 17.0761C32.6732 17.3503 32.5747 17.6041 32.4503 17.8373C32.1641 18.3849 31.7472 18.808 31.1997 19.1067C30.6646 19.3929 30.0112 19.536 29.2397 19.536C28.4806 19.536 27.8086 19.3618 27.2237 19.0133C26.6388 18.6649 26.1783 18.1796 25.8423 17.5573C25.5063 16.9351 25.3383 16.2133 25.3383 15.392C25.3383 14.5707 25.5063 13.8551 25.8423 13.2453C26.1908 12.6231 26.6699 12.144 27.2797 11.808C27.8895 11.4596 28.5801 11.2853 29.3517 11.2853C30.0735 11.2853 30.7206 11.4222 31.293 11.696C31.8655 11.9698 32.3632 12.3804 32.7863 12.928L34.7837 10.9307C34.1739 10.2089 33.4023 9.64266 32.469 9.232C31.5481 8.82133 30.5215 8.616 29.389 8.616C28.4059 8.616 27.485 8.79022 26.6263 9.13866C25.7677 9.47466 25.0148 9.95377 24.3677 10.576C23.733 11.1858 23.2352 11.9013 22.8743 12.7227C22.5135 13.544 22.333 14.4338 22.333 15.392C22.333 16.3502 22.5072 17.2462 22.8557 18.08C23.2166 18.9013 23.7081 19.6231 24.3303 20.2453C24.9526 20.8551 25.6806 21.3342 26.5143 21.6827Z" fill="#0A0D12"/>
<path fill-rule="evenodd" clip-rule="evenodd" d="M38.8559 21.5893C39.615 22 40.4613 22.2053 41.3946 22.2053C42.3404 22.2053 43.1866 22 43.9333 21.5893C44.6799 21.1662 45.271 20.5938 45.7066 19.872C46.1421 19.1502 46.3599 18.3413 46.3599 17.4453C46.3599 16.5493 46.1421 15.7467 45.7066 15.0373C45.271 14.3156 44.6799 13.7493 43.9333 13.3387C43.1866 12.928 42.3404 12.7227 41.3946 12.7227C40.4488 12.7227 39.6026 12.9342 38.8559 13.3573C38.1093 13.768 37.5181 14.328 37.0826 15.0373C36.647 15.7467 36.4293 16.5493 36.4293 17.4453C36.4293 18.3413 36.647 19.1502 37.0826 19.872C37.5181 20.5938 38.1093 21.1662 38.8559 21.5893ZM42.4773 19.3493C42.1661 19.5236 41.8053 19.6107 41.3946 19.6107C40.9964 19.6107 40.6417 19.5236 40.3306 19.3493C40.0195 19.1627 39.7768 18.9076 39.6026 18.584C39.4284 18.248 39.3413 17.8747 39.3413 17.464C39.3413 17.0409 39.4284 16.6676 39.6026 16.344C39.7768 16.0204 40.0195 15.7716 40.3306 15.5973C40.6417 15.4107 40.9964 15.3173 41.3946 15.3173C41.8053 15.3173 42.1599 15.4107 42.4586 15.5973C42.7697 15.7716 43.0124 16.0204 43.1866 16.344C43.3608 16.6551 43.4479 17.0222 43.4479 17.4453C43.4479 17.8684 43.3608 18.248 43.1866 18.584C43.0248 18.9076 42.7884 19.1627 42.4773 19.3493Z" fill="#0A0D12"/>
<path fill-rule="evenodd" clip-rule="evenodd" d="M51.7765 22.2053C50.8431 22.2053 49.9969 22 49.2378 21.5893C48.4911 21.1662 47.9 20.5938 47.4645 19.872C47.0289 19.1502 46.8111 18.3413 46.8111 17.4453C46.8111 16.5493 47.0289 15.7467 47.4645 15.0373C47.9 14.328 48.4911 13.768 49.2378 13.3573C49.9845 12.9342 50.8307 12.7227 51.7765 12.7227C52.7222 12.7227 53.5685 12.928 54.3151 13.3387C55.0618 13.7493 55.6529 14.3156 56.0885 15.0373C56.524 15.7467 56.7418 16.5493 56.7418 17.4453C56.7418 18.3413 56.524 19.1502 56.0885 19.872C55.6529 20.5938 55.0618 21.1662 54.3151 21.5893C53.5685 22 52.7222 22.2053 51.7765 22.2053ZM51.7765 19.6107C52.1871 19.6107 52.548 19.5236 52.8591 19.3493C53.1702 19.1627 53.4067 18.9076 53.5685 18.584C53.7427 18.248 53.8298 17.8684 53.8298 17.4453C53.8298 17.0222 53.7427 16.6551 53.5685 16.344C53.3942 16.0204 53.1516 15.7716 52.8405 15.5973C52.5418 15.4107 52.1871 15.3173 51.7765 15.3173C51.3782 15.3173 51.0236 15.4107 50.7125 15.5973C50.4014 15.7716 50.1587 16.0204 49.9845 16.344C49.8102 16.6676 49.7231 17.0409 49.7231 17.464C49.7231 17.8747 49.8102 18.248 49.9845 18.584C50.1587 18.9076 50.4014 19.1627 50.7125 19.3493C51.0236 19.5236 51.3782 19.6107 51.7765 19.6107Z" fill="#0A0D12"/>
<path d="M74.8435 16.7733L73.0546 22H70.7399L67.6039 12.928H70.4039L71.9575 18.2013L73.6706 12.928H75.9852L77.7074 18.1834L79.2706 12.928H82.0706L78.9346 22H76.6012L74.8435 16.7733Z" fill="#0A0D12"/>
<path fill-rule="evenodd" clip-rule="evenodd" d="M84.5232 21.5893C85.2948 22 86.1845 22.2053 87.1925 22.2053C87.9765 22.2053 88.6859 22.0747 89.3205 21.8133C89.9676 21.5396 90.5339 21.1351 91.0192 20.6L89.4512 19.032C89.165 19.3556 88.8414 19.5982 88.4805 19.76C88.1321 19.9093 87.7339 19.984 87.2859 19.984C86.9906 19.984 86.7142 19.9465 86.4564 19.8715L91.1312 15.3547C90.7703 14.5084 90.2414 13.8613 89.5445 13.4133C88.8476 12.9529 88.0014 12.7227 87.0059 12.7227C86.0601 12.7227 85.2076 12.9342 84.4485 13.3573C83.7019 13.768 83.1107 14.328 82.6752 15.0373C82.2521 15.7467 82.0405 16.5493 82.0405 17.4453C82.0405 18.3413 82.2583 19.1502 82.6939 19.872C83.1419 20.5938 83.7516 21.1662 84.5232 21.5893ZM88.2214 15.2991L84.8987 18.4978C84.7603 18.1565 84.6912 17.7746 84.6912 17.352C84.6912 16.8791 84.7845 16.4684 84.9712 16.12C85.1579 15.7591 85.4254 15.4853 85.7739 15.2987C86.1223 15.0996 86.5392 15 87.0245 15C87.5176 15 87.9166 15.0997 88.2214 15.2991Z" fill="#0A0D12"/>
<path d="M92.0532 22V8.448H94.9092V22H92.0532Z" fill="#0A0D12"/>
<path d="M96.547 8.448V22H99.403V8.448H96.547Z" fill="#0A0D12"/>
</svg>
