
<svg width="950" height="464" viewBox="0 0 950 464" fill="none" xmlns="http://www.w3.org/2000/svg">
<path opacity="0.4" d="M107 370L224.051 370C237.858 370 249.051 358.807 249.051 345L249.051 281C249.051 267.193 260.244 256 274.051 256L469 256" stroke="url(#paint0_linear_322_843)" stroke-width="6" stroke-linecap="round" stroke-linejoin="round"/>
<path opacity="0.4" d="M127 63L227.962 63C241.769 63 252.962 74.1929 252.962 88L252.962 151C252.962 164.807 264.155 176 277.962 176L448 176" stroke="url(#paint1_linear_322_843)" stroke-width="6" stroke-linecap="round" stroke-linejoin="round"/>
<g filter="url(#filter0_d_322_843)">
<rect x="63" y="32" width="64" height="64" rx="32" fill="white"/>
<path d="M107.444 51.5554H82.5547C81.7296 51.5554 80.9383 51.8832 80.3548 52.4666C79.7714 53.0501 79.4436 53.8414 79.4436 54.6665V73.3332C79.4436 74.1583 79.7714 74.9496 80.3548 75.5331C80.9383 76.1165 81.7296 76.4443 82.5547 76.4443H107.444C108.269 76.4443 109.06 76.1165 109.643 75.5331C110.227 74.9496 110.555 74.1583 110.555 73.3332V54.6665C110.555 53.8414 110.227 53.0501 109.643 52.4666C109.06 51.8832 108.269 51.5554 107.444 51.5554ZM107.444 58.8665L94.9992 67.1639L82.5547 58.8665V55.1285L94.9992 63.4243L107.444 55.1285V58.8665Z" fill="#17B26A"/>
</g>
<g filter="url(#filter1_d_322_843)">
<rect x="73" y="179" width="64" height="64" rx="32" fill="white"/>
<path d="M92.5554 220.333H95.6666V226.682L103.601 220.333H111.222C112.938 220.333 114.333 218.938 114.333 217.222V204.778C114.333 203.062 112.938 201.667 111.222 201.667H92.5554C90.8397 201.667 89.4443 203.062 89.4443 204.778V217.222C89.4443 218.938 90.8397 220.333 92.5554 220.333Z" fill="#6962FB"/>
<path d="M117.445 195.444H98.7779C97.0621 195.444 95.6667 196.84 95.6667 198.555H114.333C116.049 198.555 117.445 199.951 117.445 201.667V214.111C119.16 214.111 120.556 212.716 120.556 211V198.555C120.556 196.84 119.16 195.444 117.445 195.444Z" fill="#6962FB"/>
</g>
<g filter="url(#filter2_d_322_843)">
<rect x="43" y="336" width="64" height="64" rx="32" fill="white"/>
<path d="M85.9805 357.849C85.9576 357.682 85.8113 357.589 85.6904 357.579C85.5698 357.569 83.0164 357.38 83.0164 357.38C83.0164 357.38 81.243 355.617 81.0485 355.422C80.8537 355.227 80.4734 355.287 80.3258 355.33C80.3039 355.337 79.9383 355.45 79.3333 355.637C78.7408 353.931 77.6955 352.363 75.8562 352.363C75.8055 352.363 75.7532 352.365 75.7009 352.368C75.1779 351.676 74.5299 351.375 73.9703 351.375C69.6859 351.375 67.639 356.736 66.9972 359.46C65.3324 359.976 64.1497 360.343 63.9986 360.391C63.0694 360.682 63.04 360.712 62.9181 361.588C62.826 362.252 60.3945 381.072 60.3945 381.072L79.341 384.625L89.607 382.402C89.607 382.402 86.0032 358.016 85.9805 357.849ZM78.2861 355.961C77.8103 356.109 77.2693 356.276 76.683 356.458C76.6835 356.345 76.6841 356.233 76.6841 356.112C76.6841 355.051 76.537 354.198 76.3011 353.521C77.2488 353.64 77.8799 354.719 78.2861 355.961ZM75.1255 353.731C75.3889 354.392 75.5603 355.34 75.5603 356.62C75.5603 356.685 75.5597 356.745 75.5592 356.806C74.5165 357.129 73.3837 357.48 72.2481 357.832C72.8857 355.369 74.0807 354.18 75.1255 353.731ZM73.8526 352.525C74.0375 352.525 74.2238 352.588 74.4021 352.711C73.029 353.357 71.5572 354.986 70.9357 358.239C70.0272 358.52 69.1394 358.795 68.3185 359.05C69.0465 356.569 70.7753 352.525 73.8526 352.525Z" fill="#95BF46"/>
<path d="M85.6891 357.58C85.5685 357.569 83.0151 357.38 83.0151 357.38C83.0151 357.38 81.2417 355.618 81.0472 355.423C80.9743 355.35 80.8761 355.313 80.7734 355.297L79.3408 384.625L89.6057 382.403C89.6057 382.403 86.0019 358.017 85.9792 357.849C85.9563 357.682 85.81 357.59 85.6891 357.58Z" fill="#5E8E3E"/>
<path d="M75.8557 363.257L74.5899 367.025C74.5899 367.025 73.4808 366.433 72.1213 366.433C70.1284 366.433 70.028 367.685 70.028 368C70.028 369.722 74.5109 370.381 74.5109 374.413C74.5109 377.585 72.5008 379.627 69.7905 379.627C66.5381 379.627 64.875 377.601 64.875 377.601L65.7458 374.722C65.7458 374.722 67.4554 376.191 68.8981 376.191C69.8407 376.191 70.2242 375.448 70.2242 374.905C70.2242 372.66 66.5464 372.56 66.5464 368.87C66.5464 365.765 68.7732 362.76 73.2681 362.76C75.0001 362.76 75.8557 363.257 75.8557 363.257Z" fill="white"/>
</g>
<path opacity="0.4" d="M137 211L413 211" stroke="url(#paint2_linear_322_843)" stroke-width="6"/>
<path opacity="0.4" d="M823 349L724.392 349C710.585 349 699.392 337.807 699.392 324L699.392 260C699.392 246.193 688.2 235 674.392 235L508 235" stroke="url(#paint3_linear_322_843)" stroke-width="6" stroke-linecap="round" stroke-linejoin="round"/>
<path opacity="0.4" d="M843 53L736.544 53C722.737 53 711.544 64.1929 711.544 78L711.544 141C711.544 154.807 700.351 166 686.544 166L508 166" stroke="url(#paint4_linear_322_843)" stroke-width="6" stroke-linecap="round" stroke-linejoin="round"/>
<g filter="url(#filter3_d_322_843)">
<rect x="843" y="22" width="64" height="64" rx="32" fill="white"/>
<path d="M875 37.6665C866.017 37.6665 858.667 45.0534 858.667 54.0819C858.667 62.1829 864.661 68.9132 872.387 70.3332V58.6782H868.303V54.0819H872.387V50.4705C872.387 46.3667 875 44.0685 878.757 44.0685C879.9 44.0685 881.207 44.2327 882.35 44.3968V48.5828H880.227C878.267 48.5828 877.777 49.5677 877.777 50.8809V54.0819H882.105L881.37 58.6782H877.777V70.3168C885.494 68.8886 891.333 62.1829 891.333 54.0819C891.333 45.0534 883.983 37.6665 875 37.6665Z" fill="url(#paint5_linear_322_843)"/>
</g>
<g filter="url(#filter4_d_322_843)">
<rect x="813" y="170" width="64" height="64" rx="32" fill="white"/>
<path d="M836.193 206.425C836.376 204.915 836.995 204.07 838.162 203.203C839.831 202.03 841.916 202.694 841.916 202.694V198.756C842.423 198.743 842.93 198.773 843.432 198.846V203.913C843.432 203.913 841.347 203.25 839.678 204.424C838.512 205.289 837.891 206.135 837.71 207.645C837.704 208.464 837.858 209.536 838.566 210.462C838.391 210.373 838.212 210.27 838.031 210.155C836.47 209.108 836.186 207.536 836.193 206.425ZM852.042 191.475C850.893 190.217 850.459 188.946 850.302 188.054H851.747C851.747 188.054 851.459 190.394 853.558 192.695L853.587 192.726C853.021 192.371 852.502 191.95 852.042 191.475ZM859.001 195.043V200.008C859.001 200.008 857.157 199.936 855.793 199.589C853.888 199.104 852.664 198.359 852.664 198.359C852.664 198.359 851.818 197.828 851.75 197.791V208.045C851.75 208.616 851.593 210.042 851.117 211.231C850.495 212.787 849.534 213.808 849.358 214.017C849.358 214.017 848.19 215.397 846.129 216.326C844.272 217.165 842.641 217.144 842.154 217.165C842.154 217.165 839.335 217.277 836.798 215.628C836.249 215.265 835.737 214.853 835.269 214.399L835.281 214.408C837.818 216.056 840.637 215.945 840.637 215.945C841.125 215.924 842.756 215.945 844.612 215.106C846.671 214.177 847.841 212.796 847.841 212.796C848.016 212.588 848.98 211.567 849.6 210.01C850.075 208.822 850.233 207.395 850.233 206.824V196.572C850.301 196.609 851.147 197.14 851.147 197.14C851.147 197.14 852.371 197.885 854.276 198.37C855.641 198.717 857.484 198.789 857.484 198.789V194.898C858.114 195.04 858.652 195.078 859.001 195.043Z" fill="#EE1D52"/>
<path d="M857.484 194.898V198.788C857.484 198.788 855.641 198.716 854.276 198.369C852.372 197.884 851.147 197.139 851.147 197.139C851.147 197.139 850.302 196.608 850.233 196.571V206.826C850.233 207.397 850.077 208.823 849.6 210.012C848.978 211.568 848.017 212.589 847.841 212.798C847.841 212.798 846.672 214.178 844.612 215.108C842.756 215.946 841.125 215.925 840.637 215.946C840.637 215.946 837.819 216.058 835.281 214.409L835.269 214.4C835.001 214.141 834.749 213.867 834.513 213.58C833.704 212.593 833.207 211.425 833.083 211.092C833.083 211.091 833.083 211.089 833.083 211.088C832.882 210.509 832.46 209.119 832.518 207.773C832.62 205.397 833.456 203.939 833.677 203.574C834.262 202.578 835.023 201.687 835.926 200.94C836.723 200.296 837.626 199.783 838.598 199.424C839.65 199.001 840.776 198.774 841.916 198.756V202.694C841.916 202.694 839.83 202.032 838.162 203.203C836.995 204.07 836.376 204.915 836.194 206.425C836.186 207.536 836.47 209.108 838.029 210.156C838.211 210.271 838.39 210.374 838.565 210.463C838.837 210.817 839.169 211.126 839.546 211.376C841.069 212.34 842.345 212.408 843.977 211.781C845.066 211.363 845.885 210.419 846.265 209.374C846.503 208.721 846.5 208.064 846.5 207.384V188.054H850.298C850.455 188.946 850.89 190.217 852.038 191.475C852.499 191.95 853.017 192.371 853.583 192.726C853.75 192.899 854.605 193.754 855.702 194.279C856.269 194.55 856.867 194.758 857.484 194.898Z" fill="black"/>
<path d="M831.572 209.883V209.886L831.666 210.142C831.655 210.112 831.62 210.021 831.572 209.883Z" fill="#69C9D0"/>
<path d="M838.599 199.424C837.626 199.784 836.723 200.296 835.926 200.941C835.023 201.689 834.262 202.582 833.677 203.58C833.457 203.944 832.621 205.403 832.519 207.778C832.461 209.125 832.883 210.515 833.084 211.094C833.083 211.095 833.083 211.096 833.084 211.098C833.21 211.428 833.705 212.595 834.514 213.585C834.75 213.873 835.002 214.146 835.27 214.406C834.411 213.837 833.646 213.149 832.998 212.365C832.196 211.386 831.701 210.231 831.571 209.89C831.571 209.887 831.571 209.885 831.571 209.883V209.878C831.37 209.3 830.947 207.91 831.006 206.561C831.108 204.186 831.944 202.728 832.165 202.363C832.749 201.365 833.51 200.472 834.413 199.723C835.21 199.079 836.113 198.566 837.086 198.207C837.693 197.965 838.325 197.787 838.971 197.676C839.945 197.513 840.94 197.499 841.919 197.634V198.756C840.778 198.774 839.651 199.001 838.599 199.424Z" fill="#69C9D0"/>
<path d="M850.301 188.054H846.503V207.385C846.503 208.065 846.503 208.72 846.268 209.375C845.884 210.419 845.068 211.363 843.98 211.781C842.348 212.41 841.072 212.34 839.549 211.376C839.171 211.127 838.839 210.819 838.565 210.466C839.863 211.129 841.024 211.118 842.462 210.564C843.549 210.146 844.366 209.202 844.748 208.157C844.988 207.504 844.984 206.847 844.984 206.168V186.833H850.229C850.229 186.833 850.17 187.314 850.301 188.054ZM857.484 193.823V194.899C856.868 194.758 856.271 194.55 855.705 194.279C854.608 193.754 853.753 192.899 853.586 192.726C853.78 192.848 853.981 192.959 854.189 193.059C855.523 193.697 856.836 193.888 857.484 193.823Z" fill="#69C9D0"/>
</g>
<g filter="url(#filter5_d_322_843)">
<rect x="823" y="316" width="64" height="64" rx="32" fill="white"/>
<path d="M864.399 340.887C864.18 340.324 863.919 339.922 863.497 339.499C863.075 339.077 862.673 338.816 862.11 338.597C861.685 338.431 861.047 338.235 859.871 338.183C858.6 338.125 858.218 338.112 854.997 338.112C854.595 338.112 854.236 338.112 853.914 338.112C851.666 338.112 851.236 338.127 850.123 338.178C848.947 338.23 848.309 338.426 847.884 338.592C847.322 338.811 846.92 339.072 846.498 339.494C846.075 339.917 845.814 340.319 845.596 340.882C845.43 341.306 845.234 341.945 845.181 343.121C845.123 344.392 845.111 344.772 845.111 347.993C845.111 351.215 845.123 351.597 845.181 352.869C845.234 354.045 845.432 354.683 845.596 355.108C845.814 355.671 846.075 356.073 846.498 356.495C846.92 356.917 847.322 357.179 847.884 357.397C848.309 357.563 848.947 357.759 850.123 357.814C851.394 357.872 851.776 357.885 854.997 357.885C858.218 357.885 858.6 357.872 859.871 357.814C861.047 357.762 861.685 357.566 862.11 357.4C862.673 357.181 863.075 356.92 863.497 356.497C863.919 356.075 864.18 355.676 864.399 355.113C864.564 354.688 864.76 354.05 864.813 352.874C864.871 351.602 864.884 351.22 864.884 348.001C864.884 344.782 864.871 344.4 864.813 343.128C864.76 341.952 864.562 341.314 864.399 340.889V340.887ZM854.997 354.196C851.578 354.196 848.804 351.424 848.804 348.001C848.804 344.578 851.578 341.806 854.997 341.806C858.417 341.806 861.19 344.581 861.19 348.001C861.19 351.421 858.419 354.196 854.997 354.196ZM861.434 343.01C860.635 343.01 859.987 342.362 859.987 341.563C859.987 340.764 860.635 340.115 861.434 340.115C862.233 340.115 862.881 340.764 862.881 341.563C862.881 342.362 862.233 343.01 861.434 343.01Z" fill="url(#paint6_radial_322_843)"/>
<path d="M864.399 340.887C864.18 340.324 863.919 339.922 863.497 339.499C863.075 339.077 862.673 338.816 862.11 338.597C861.685 338.431 861.047 338.235 859.871 338.183C858.6 338.125 858.218 338.112 854.997 338.112C854.595 338.112 854.236 338.112 853.914 338.112C851.666 338.112 851.236 338.127 850.123 338.178C848.947 338.23 848.309 338.426 847.884 338.592C847.322 338.811 846.92 339.072 846.498 339.494C846.075 339.917 845.814 340.319 845.596 340.882C845.43 341.306 845.234 341.945 845.181 343.121C845.123 344.392 845.111 344.772 845.111 347.993C845.111 351.215 845.123 351.597 845.181 352.869C845.234 354.045 845.432 354.683 845.596 355.108C845.814 355.671 846.075 356.073 846.498 356.495C846.92 356.917 847.322 357.179 847.884 357.397C848.309 357.563 848.947 357.759 850.123 357.814C851.394 357.872 851.776 357.885 854.997 357.885C858.218 357.885 858.6 357.872 859.871 357.814C861.047 357.762 861.685 357.566 862.11 357.4C862.673 357.181 863.075 356.92 863.497 356.497C863.919 356.075 864.18 355.676 864.399 355.113C864.564 354.688 864.76 354.05 864.813 352.874C864.871 351.602 864.884 351.22 864.884 348.001C864.884 344.782 864.871 344.4 864.813 343.128C864.76 341.952 864.562 341.314 864.399 340.889V340.887ZM854.997 354.196C851.578 354.196 848.804 351.424 848.804 348.001C848.804 344.578 851.578 341.806 854.997 341.806C858.417 341.806 861.19 344.581 861.19 348.001C861.19 351.421 858.419 354.196 854.997 354.196ZM861.434 343.01C860.635 343.01 859.987 342.362 859.987 341.563C859.987 340.764 860.635 340.115 861.434 340.115C862.233 340.115 862.881 340.764 862.881 341.563C862.881 342.362 862.233 343.01 861.434 343.01Z" fill="url(#paint7_radial_322_843)"/>
<path d="M854.997 352.022C857.217 352.022 859.017 350.222 859.017 348.001C859.017 345.78 857.217 343.98 854.997 343.98C852.777 343.98 850.977 345.78 850.977 348.001C850.977 350.222 852.777 352.022 854.997 352.022Z" fill="url(#paint8_radial_322_843)"/>
<path d="M854.997 352.022C857.217 352.022 859.017 350.222 859.017 348.001C859.017 345.78 857.217 343.98 854.997 343.98C852.777 343.98 850.977 345.78 850.977 348.001C850.977 350.222 852.777 352.022 854.997 352.022Z" fill="url(#paint9_radial_322_843)"/>
<path d="M871.303 338.746C871.2 337.434 870.976 336.552 870.516 335.619C870.14 334.856 869.722 334.288 869.117 333.705C868.037 332.672 866.715 332.043 865.14 331.817C864.376 331.707 864.225 331.674 860.321 331.667H855.005C848.186 331.667 846.191 331.674 845.804 331.707C844.405 331.822 843.533 332.043 842.586 332.516C841.855 332.88 841.277 333.3 840.709 333.891C839.671 334.966 839.043 336.288 838.817 337.864C838.706 338.628 838.674 338.783 838.666 342.684C838.666 343.985 838.666 345.697 838.666 347.994C838.666 354.809 838.674 356.802 838.706 357.189C838.82 358.551 839.033 359.408 839.485 360.345C840.35 362.139 842 363.486 843.945 363.989C844.618 364.162 845.362 364.258 846.317 364.303C846.721 364.321 850.844 364.333 854.969 364.333C859.095 364.333 863.22 364.328 863.615 364.308C864.72 364.255 865.363 364.17 866.072 363.986C868.029 363.481 869.65 362.154 870.531 360.335C870.974 359.42 871.2 358.531 871.303 357.239C871.325 356.957 871.333 352.469 871.333 347.989C871.333 343.508 871.323 339.027 871.3 338.746H871.303ZM866.984 352.974C866.924 354.258 866.72 355.136 866.424 355.902C866.115 356.696 865.703 357.367 865.032 358.038C864.361 358.709 863.69 359.121 862.896 359.43C862.13 359.729 861.251 359.933 859.967 359.991C858.68 360.048 858.271 360.064 854.995 360.064C851.718 360.064 851.309 360.048 850.022 359.991C848.739 359.933 847.862 359.729 847.095 359.43C846.302 359.121 845.631 358.709 844.96 358.038C844.289 357.367 843.877 356.694 843.568 355.902C843.269 355.136 843.068 354.258 843.008 352.974C842.95 351.688 842.935 351.278 842.935 348.001C842.935 344.724 842.95 344.315 843.008 343.028C843.066 341.744 843.269 340.867 843.568 340.1C843.877 339.306 844.289 338.635 844.96 337.964C845.631 337.293 846.304 336.881 847.095 336.574C847.862 336.275 848.739 336.072 850.022 336.014C851.309 335.956 851.721 335.941 854.992 335.941H854.997C858.271 335.941 858.68 335.956 859.967 336.014C861.251 336.072 862.127 336.275 862.896 336.574C863.69 336.881 864.361 337.293 865.032 337.964C865.703 338.635 866.115 339.309 866.424 340.1C866.72 340.867 866.924 341.744 866.984 343.028C867.042 344.315 867.057 344.727 867.057 348.001C867.057 351.276 867.042 351.688 866.984 352.974Z" fill="url(#paint10_radial_322_843)"/>
<path d="M871.303 338.746C871.2 337.434 870.976 336.552 870.516 335.619C870.14 334.856 869.722 334.288 869.117 333.705C868.037 332.672 866.715 332.043 865.14 331.817C864.376 331.707 864.225 331.674 860.321 331.667H855.005C848.186 331.667 846.191 331.674 845.804 331.707C844.405 331.822 843.533 332.043 842.586 332.516C841.855 332.88 841.277 333.3 840.709 333.891C839.671 334.966 839.043 336.288 838.817 337.864C838.706 338.628 838.674 338.783 838.666 342.684C838.666 343.985 838.666 345.697 838.666 347.994C838.666 354.809 838.674 356.802 838.706 357.189C838.82 358.551 839.033 359.408 839.485 360.345C840.35 362.139 842 363.486 843.945 363.989C844.618 364.162 845.362 364.258 846.317 364.303C846.721 364.321 850.844 364.333 854.969 364.333C859.095 364.333 863.22 364.328 863.615 364.308C864.72 364.255 865.363 364.17 866.072 363.986C868.029 363.481 869.65 362.154 870.531 360.335C870.974 359.42 871.2 358.531 871.303 357.239C871.325 356.957 871.333 352.469 871.333 347.989C871.333 343.508 871.323 339.027 871.3 338.746H871.303ZM866.984 352.974C866.924 354.258 866.72 355.136 866.424 355.902C866.115 356.696 865.703 357.367 865.032 358.038C864.361 358.709 863.69 359.121 862.896 359.43C862.13 359.729 861.251 359.933 859.967 359.991C858.68 360.048 858.271 360.064 854.995 360.064C851.718 360.064 851.309 360.048 850.022 359.991C848.739 359.933 847.862 359.729 847.095 359.43C846.302 359.121 845.631 358.709 844.96 358.038C844.289 357.367 843.877 356.694 843.568 355.902C843.269 355.136 843.068 354.258 843.008 352.974C842.95 351.688 842.935 351.278 842.935 348.001C842.935 344.724 842.95 344.315 843.008 343.028C843.066 341.744 843.269 340.867 843.568 340.1C843.877 339.306 844.289 338.635 844.96 337.964C845.631 337.293 846.304 336.881 847.095 336.574C847.862 336.275 848.739 336.072 850.022 336.014C851.309 335.956 851.721 335.941 854.992 335.941H854.997C858.271 335.941 858.68 335.956 859.967 336.014C861.251 336.072 862.127 336.275 862.896 336.574C863.69 336.881 864.361 337.293 865.032 337.964C865.703 338.635 866.115 339.309 866.424 340.1C866.72 340.867 866.924 341.744 866.984 343.028C867.042 344.315 867.057 344.727 867.057 348.001C867.057 351.276 867.042 351.688 866.984 352.974Z" fill="url(#paint11_radial_322_843)"/>
</g>
<path opacity="0.4" d="M813 202L491 202" stroke="url(#paint12_linear_322_843)" stroke-width="6"/>
<rect x="319" y="50" width="312" height="312" rx="156" fill="url(#paint13_radial_322_843)" fill-opacity="0.6"/>
<rect x="319" y="50" width="312" height="312" rx="156" stroke="#C3C1FD" stroke-opacity="0.15" stroke-width="2" stroke-linecap="round" stroke-linejoin="round"/>
<rect x="347" y="78" width="256" height="256" rx="128" fill="url(#paint14_radial_322_843)" fill-opacity="0.6"/>
<rect x="347" y="78" width="256" height="256" rx="128" stroke="#C3C1FD" stroke-opacity="0.2" stroke-width="2" stroke-linecap="round" stroke-linejoin="round"/>
<rect x="375" y="106" width="200" height="200" rx="100" fill="url(#paint15_radial_322_843)" fill-opacity="0.6"/>
<rect x="375" y="106" width="200" height="200" rx="100" stroke="#C3C1FD" stroke-opacity="0.25" stroke-width="2" stroke-linecap="round" stroke-linejoin="round"/>
<rect x="395.493" y="126.493" width="158.9" height="158.9" rx="79.4502" fill="#FAF9FC"/>
<g filter="url(#filter6_d_322_843)">
<rect x="401.49" y="132.49" width="146.908" height="146.908" rx="73.454" fill="white" fill-opacity="0.73" shape-rendering="crispEdges"/>
<rect x="401.79" y="132.79" width="146.308" height="146.308" rx="73.1542" stroke="white" stroke-width="0.599625" stroke-linecap="round" shape-rendering="crispEdges"/>
</g>
<g filter="url(#filter7_d_322_843)">
<rect x="411.084" y="142.084" width="127.72" height="127.72" rx="63.86" fill="white"/>
<rect x="411.384" y="142.384" width="127.12" height="127.12" rx="63.5602" stroke="#5572F6" stroke-opacity="0.16" stroke-width="0.599625" stroke-linecap="round"/>
</g>
<g filter="url(#filter8_d_322_843)">
<path d="M417.679 205.944C417.679 174.317 443.317 148.679 474.944 148.679C506.57 148.679 532.208 174.317 532.208 205.944C532.208 237.57 506.57 263.208 474.944 263.208C443.317 263.208 417.679 237.57 417.679 205.944Z" fill="url(#paint16_linear_322_843)" shape-rendering="crispEdges"/>
</g>
<mask id="mask0_322_843" style="mask-type:luminance" maskUnits="userSpaceOnUse" x="471" y="218" width="7" height="8">
<path d="M471.571 218.214H477.559V226H471.571V218.214Z" fill="white"/>
</mask>
<g mask="url(#mask0_322_843)">
<path d="M474.687 218.466C474.534 219.04 473.426 219.958 471.896 220.838L472.431 221.831L474.687 225.887L476.946 221.831L477.48 220.838C475.95 219.958 474.84 219.04 474.687 218.466Z" fill="white"/>
</g>
<mask id="mask1_322_843" style="mask-type:luminance" maskUnits="userSpaceOnUse" x="446" y="190" width="58" height="31">
<path d="M446 190H503.258V220.057H446V190Z" fill="white"/>
</mask>
<g mask="url(#mask1_322_843)">
<path d="M503.261 190.045L474.687 198.651L446.115 190.045C446.038 190.313 446 190.581 446 190.81C446 191.958 446.765 193.068 447.913 193.412L449.329 193.833L466.808 199.11C470.711 200.296 473.235 203.853 473.311 207.717C473.311 207.794 473.311 207.869 473.311 207.985C473.311 209.476 472.929 210.968 472.125 212.422C470.137 215.941 465.968 217.777 462.065 216.821C459.465 216.208 457.322 214.563 456.06 212.231C454.912 210.088 454.644 207.601 455.371 205.269C455.564 204.695 455.792 204.121 456.06 203.585C453.192 205.69 452.312 210.281 453.421 212.996C453.804 213.798 454.263 214.563 454.837 215.29C455.83 216.591 457.131 217.662 458.623 218.426C460.42 219.346 462.295 219.805 464.17 219.805C468.53 219.805 472.622 217.356 474.687 213.417C476.753 217.356 480.847 219.805 485.206 219.805C487.044 219.805 488.917 219.384 490.714 218.426C492.168 217.662 493.469 216.591 494.502 215.29C495.076 214.563 495.535 213.798 495.916 212.996C497.027 210.241 496.147 205.69 493.278 203.585C493.584 204.121 493.813 204.695 493.966 205.269C494.693 207.601 494.425 210.088 493.278 212.231C492.015 214.563 489.874 216.208 487.272 216.821C483.333 217.739 479.202 215.902 477.212 212.422C476.372 210.968 476.026 209.439 476.026 207.985C476.026 207.909 476.026 207.832 476.026 207.717C476.103 203.853 478.628 200.296 482.529 199.11L500.01 193.833L501.464 193.412C502.65 193.068 503.377 191.995 503.377 190.81C503.377 190.543 503.337 190.313 503.261 190.045Z" fill="white"/>
</g>
<path d="M485.206 211.351C483.294 211.351 481.764 209.82 481.764 207.909C481.764 205.996 483.294 204.465 485.206 204.465C485.59 204.465 486.011 204.543 486.354 204.658C485.78 204.848 485.359 205.385 485.359 206.034C485.359 206.837 486.011 207.488 486.813 207.488C487.54 207.488 488.152 206.952 488.229 206.263C488.496 206.761 488.649 207.335 488.649 207.947C488.649 209.82 487.119 211.351 485.206 211.351ZM483.409 201.367C479.967 202.399 477.786 205.919 478.59 209.401C479.317 212.575 482.147 214.641 485.169 214.641C485.818 214.641 486.47 214.563 487.119 214.335C488.841 213.798 490.255 212.65 491.135 211.045C491.977 209.439 492.168 207.641 491.634 205.881C491.213 204.465 490.333 203.242 489.147 202.399L491.824 201.597L494.655 200.755L496.222 200.296C497.408 199.952 498.135 198.882 498.135 197.696C498.135 197.428 498.097 197.16 498.022 196.892L483.409 201.367Z" fill="white"/>
<path d="M464.17 204.465C464.552 204.465 464.973 204.542 465.316 204.658C464.742 204.848 464.323 205.385 464.323 206.034C464.323 206.837 464.973 207.488 465.775 207.488C466.502 207.488 467.114 206.952 467.191 206.263C467.459 206.761 467.612 207.335 467.612 207.947C467.612 209.86 466.081 211.389 464.17 211.389C462.257 211.389 460.726 209.86 460.726 207.947C460.726 205.996 462.257 204.465 464.17 204.465ZM454.644 200.794L457.475 201.635L460.152 202.439C458.966 203.279 458.126 204.505 457.667 205.919C457.131 207.641 457.322 209.476 458.164 211.083C459.006 212.69 460.46 213.836 462.18 214.372C462.83 214.563 463.481 214.678 464.131 214.678C467.191 214.678 469.984 212.613 470.711 209.439C471.513 205.919 469.333 202.439 465.89 201.406L451.279 196.931C451.202 197.197 451.164 197.466 451.164 197.734C451.164 198.882 451.929 199.99 453.077 200.336L454.644 200.794Z" fill="white"/>
<rect x="120" y="56" width="14" height="14" rx="7" fill="#17B26A"/>
<rect x="120" y="56" width="14" height="14" rx="7" stroke="white" stroke-width="2"/>
<rect x="835" y="46" width="14" height="14" rx="7" fill="#0D89F0"/>
<rect x="835" y="46" width="14" height="14" rx="7" stroke="white" stroke-width="2"/>
<rect x="130" y="204" width="14" height="14" rx="7" fill="#6962FB"/>
<rect x="130" y="204" width="14" height="14" rx="7" stroke="white" stroke-width="2"/>
<rect x="804" y="195" width="14" height="14" rx="7" fill="#69C9D0"/>
<rect x="804" y="195" width="14" height="14" rx="7" stroke="white" stroke-width="2"/>
<rect x="100" y="364" width="14" height="14" rx="7" fill="#95BF46"/>
<rect x="100" y="364" width="14" height="14" rx="7" stroke="white" stroke-width="2"/>
<rect x="813" y="342" width="14" height="14" rx="7" fill="#F04C5E"/>
<rect x="813" y="342" width="14" height="14" rx="7" stroke="white" stroke-width="2"/>
<defs>
<filter id="filter0_d_322_843" x="20.3333" y="10.6667" width="149.333" height="149.333" filterUnits="userSpaceOnUse" color-interpolation-filters="sRGB">
<feFlood flood-opacity="0" result="BackgroundImageFix"/>
<feColorMatrix in="SourceAlpha" type="matrix" values="0 0 0 0 0 0 0 0 0 0 0 0 0 0 0 0 0 0 127 0" result="hardAlpha"/>
<feOffset dy="21.3333"/>
<feGaussianBlur stdDeviation="21.3333"/>
<feComposite in2="hardAlpha" operator="out"/>
<feColorMatrix type="matrix" values="0 0 0 0 0.0901961 0 0 0 0 0.698039 0 0 0 0 0.415686 0 0 0 0.2 0"/>
<feBlend mode="normal" in2="BackgroundImageFix" result="effect1_dropShadow_322_843"/>
<feBlend mode="normal" in="SourceGraphic" in2="effect1_dropShadow_322_843" result="shape"/>
</filter>
<filter id="filter1_d_322_843" x="30.3333" y="157.667" width="149.333" height="149.333" filterUnits="userSpaceOnUse" color-interpolation-filters="sRGB">
<feFlood flood-opacity="0" result="BackgroundImageFix"/>
<feColorMatrix in="SourceAlpha" type="matrix" values="0 0 0 0 0 0 0 0 0 0 0 0 0 0 0 0 0 0 127 0" result="hardAlpha"/>
<feOffset dy="21.3333"/>
<feGaussianBlur stdDeviation="21.3333"/>
<feComposite in2="hardAlpha" operator="out"/>
<feColorMatrix type="matrix" values="0 0 0 0 0.411765 0 0 0 0 0.384314 0 0 0 0 0.984314 0 0 0 0.2 0"/>
<feBlend mode="normal" in2="BackgroundImageFix" result="effect1_dropShadow_322_843"/>
<feBlend mode="normal" in="SourceGraphic" in2="effect1_dropShadow_322_843" result="shape"/>
</filter>
<filter id="filter2_d_322_843" x="0.333332" y="314.667" width="149.333" height="149.333" filterUnits="userSpaceOnUse" color-interpolation-filters="sRGB">
<feFlood flood-opacity="0" result="BackgroundImageFix"/>
<feColorMatrix in="SourceAlpha" type="matrix" values="0 0 0 0 0 0 0 0 0 0 0 0 0 0 0 0 0 0 127 0" result="hardAlpha"/>
<feOffset dy="21.3333"/>
<feGaussianBlur stdDeviation="21.3333"/>
<feComposite in2="hardAlpha" operator="out"/>
<feColorMatrix type="matrix" values="0 0 0 0 0.584314 0 0 0 0 0.74902 0 0 0 0 0.27451 0 0 0 0.2 0"/>
<feBlend mode="normal" in2="BackgroundImageFix" result="effect1_dropShadow_322_843"/>
<feBlend mode="normal" in="SourceGraphic" in2="effect1_dropShadow_322_843" result="shape"/>
</filter>
<filter id="filter3_d_322_843" x="800.333" y="0.666666" width="149.333" height="149.333" filterUnits="userSpaceOnUse" color-interpolation-filters="sRGB">
<feFlood flood-opacity="0" result="BackgroundImageFix"/>
<feColorMatrix in="SourceAlpha" type="matrix" values="0 0 0 0 0 0 0 0 0 0 0 0 0 0 0 0 0 0 127 0" result="hardAlpha"/>
<feOffset dy="21.3333"/>
<feGaussianBlur stdDeviation="21.3333"/>
<feComposite in2="hardAlpha" operator="out"/>
<feColorMatrix type="matrix" values="0 0 0 0 0.0509804 0 0 0 0 0.537255 0 0 0 0 0.941176 0 0 0 0.2 0"/>
<feBlend mode="normal" in2="BackgroundImageFix" result="effect1_dropShadow_322_843"/>
<feBlend mode="normal" in="SourceGraphic" in2="effect1_dropShadow_322_843" result="shape"/>
</filter>
<filter id="filter4_d_322_843" x="770.333" y="148.667" width="149.333" height="149.333" filterUnits="userSpaceOnUse" color-interpolation-filters="sRGB">
<feFlood flood-opacity="0" result="BackgroundImageFix"/>
<feColorMatrix in="SourceAlpha" type="matrix" values="0 0 0 0 0 0 0 0 0 0 0 0 0 0 0 0 0 0 127 0" result="hardAlpha"/>
<feOffset dy="21.3333"/>
<feGaussianBlur stdDeviation="21.3333"/>
<feComposite in2="hardAlpha" operator="out"/>
<feColorMatrix type="matrix" values="0 0 0 0 0.411765 0 0 0 0 0.788235 0 0 0 0 0.815686 0 0 0 0.2 0"/>
<feBlend mode="normal" in2="BackgroundImageFix" result="effect1_dropShadow_322_843"/>
<feBlend mode="normal" in="SourceGraphic" in2="effect1_dropShadow_322_843" result="shape"/>
</filter>
<filter id="filter5_d_322_843" x="780.333" y="294.667" width="149.333" height="149.333" filterUnits="userSpaceOnUse" color-interpolation-filters="sRGB">
<feFlood flood-opacity="0" result="BackgroundImageFix"/>
<feColorMatrix in="SourceAlpha" type="matrix" values="0 0 0 0 0 0 0 0 0 0 0 0 0 0 0 0 0 0 127 0" result="hardAlpha"/>
<feOffset dy="21.3333"/>
<feGaussianBlur stdDeviation="21.3333"/>
<feComposite in2="hardAlpha" operator="out"/>
<feColorMatrix type="matrix" values="0 0 0 0 0.941176 0 0 0 0 0.298039 0 0 0 0 0.368627 0 0 0 0.2 0"/>
<feBlend mode="normal" in2="BackgroundImageFix" result="effect1_dropShadow_322_843"/>
<feBlend mode="normal" in="SourceGraphic" in2="effect1_dropShadow_322_843" result="shape"/>
</filter>
<filter id="filter6_d_322_843" x="386.499" y="128.292" width="176.889" height="176.889" filterUnits="userSpaceOnUse" color-interpolation-filters="sRGB">
<feFlood flood-opacity="0" result="BackgroundImageFix"/>
<feColorMatrix in="SourceAlpha" type="matrix" values="0 0 0 0 0 0 0 0 0 0 0 0 0 0 0 0 0 0 127 0" result="hardAlpha"/>
<feMorphology radius="11.3929" operator="erode" in="SourceAlpha" result="effect1_dropShadow_322_843"/>
<feOffset dy="10.7932"/>
<feGaussianBlur stdDeviation="13.1917"/>
<feComposite in2="hardAlpha" operator="out"/>
<feColorMatrix type="matrix" values="0 0 0 0 0.72549 0 0 0 0 0.552941 0 0 0 0 1 0 0 0 1 0"/>
<feBlend mode="normal" in2="BackgroundImageFix" result="effect1_dropShadow_322_843"/>
<feBlend mode="normal" in="SourceGraphic" in2="effect1_dropShadow_322_843" result="shape"/>
</filter>
<filter id="filter7_d_322_843" x="396.093" y="137.886" width="157.701" height="157.701" filterUnits="userSpaceOnUse" color-interpolation-filters="sRGB">
<feFlood flood-opacity="0" result="BackgroundImageFix"/>
<feColorMatrix in="SourceAlpha" type="matrix" values="0 0 0 0 0 0 0 0 0 0 0 0 0 0 0 0 0 0 127 0" result="hardAlpha"/>
<feMorphology radius="11.3929" operator="erode" in="SourceAlpha" result="effect1_dropShadow_322_843"/>
<feOffset dy="10.7932"/>
<feGaussianBlur stdDeviation="13.1917"/>
<feComposite in2="hardAlpha" operator="out"/>
<feColorMatrix type="matrix" values="0 0 0 0 0.705882 0 0 0 0 0.537255 0 0 0 0 1 0 0 0 0.39 0"/>
<feBlend mode="normal" in2="BackgroundImageFix" result="effect1_dropShadow_322_843"/>
<feBlend mode="normal" in="SourceGraphic" in2="effect1_dropShadow_322_843" result="shape"/>
</filter>
<filter id="filter8_d_322_843" x="415.281" y="148.679" width="119.325" height="119.325" filterUnits="userSpaceOnUse" color-interpolation-filters="sRGB">
<feFlood flood-opacity="0" result="BackgroundImageFix"/>
<feColorMatrix in="SourceAlpha" type="matrix" values="0 0 0 0 0 0 0 0 0 0 0 0 0 0 0 0 0 0 127 0" result="hardAlpha"/>
<feOffset dy="2.3985"/>
<feGaussianBlur stdDeviation="1.19925"/>
<feComposite in2="hardAlpha" operator="out"/>
<feColorMatrix type="matrix" values="0 0 0 0 0.384314 0 0 0 0 0.454902 0 0 0 0 0.972549 0 0 0 0.39 0"/>
<feBlend mode="normal" in2="BackgroundImageFix" result="effect1_dropShadow_322_843"/>
<feBlend mode="normal" in="SourceGraphic" in2="effect1_dropShadow_322_843" result="shape"/>
</filter>
<linearGradient id="paint0_linear_322_843" x1="288" y1="370" x2="288" y2="256" gradientUnits="userSpaceOnUse">
<stop stop-color="#95BF46"/>
<stop offset="1" stop-color="#95BF46" stop-opacity="0.4"/>
</linearGradient>
<linearGradient id="paint1_linear_322_843" x1="287.5" y1="63" x2="287.5" y2="176" gradientUnits="userSpaceOnUse">
<stop stop-color="#17B26A"/>
<stop offset="1" stop-color="#17B26A" stop-opacity="0.4"/>
</linearGradient>
<linearGradient id="paint2_linear_322_843" x1="137" y1="211.5" x2="413" y2="211.5" gradientUnits="userSpaceOnUse">
<stop stop-color="#6962FB"/>
<stop offset="1" stop-color="#6962FB" stop-opacity="0.4"/>
</linearGradient>
<linearGradient id="paint3_linear_322_843" x1="665.5" y1="235" x2="665.5" y2="349" gradientUnits="userSpaceOnUse">
<stop stop-color="#F04C5E" stop-opacity="0.4"/>
<stop offset="1" stop-color="#F04C5E"/>
</linearGradient>
<linearGradient id="paint4_linear_322_843" x1="675.5" y1="166" x2="675.5" y2="53" gradientUnits="userSpaceOnUse">
<stop stop-color="#0D89F0" stop-opacity="0.4"/>
<stop offset="1" stop-color="#0D89F0"/>
</linearGradient>
<linearGradient id="paint5_linear_322_843" x1="875" y1="69.3565" x2="875" y2="37.6665" gradientUnits="userSpaceOnUse">
<stop stop-color="#0062E0"/>
<stop offset="1" stop-color="#19AFFF"/>
</linearGradient>
<radialGradient id="paint6_radial_322_843" cx="0" cy="0" r="1" gradientUnits="userSpaceOnUse" gradientTransform="translate(847.343 366.849) rotate(-90) scale(32.3751 30.1114)">
<stop stop-color="#FFDD55"/>
<stop offset="0.1" stop-color="#FFDD55"/>
<stop offset="0.5" stop-color="#FF543E"/>
<stop offset="1" stop-color="#C837AB"/>
</radialGradient>
<radialGradient id="paint7_radial_322_843" cx="0" cy="0" r="1" gradientUnits="userSpaceOnUse" gradientTransform="translate(833.194 334.02) rotate(78.6806) scale(14.4718 59.6534)">
<stop stop-color="#3771C8"/>
<stop offset="0.128" stop-color="#3771C8"/>
<stop offset="1" stop-color="#6600FF" stop-opacity="0"/>
</radialGradient>
<radialGradient id="paint8_radial_322_843" cx="0" cy="0" r="1" gradientUnits="userSpaceOnUse" gradientTransform="translate(847.343 366.849) rotate(-90) scale(32.3751 30.1114)">
<stop stop-color="#FFDD55"/>
<stop offset="0.1" stop-color="#FFDD55"/>
<stop offset="0.5" stop-color="#FF543E"/>
<stop offset="1" stop-color="#C837AB"/>
</radialGradient>
<radialGradient id="paint9_radial_322_843" cx="0" cy="0" r="1" gradientUnits="userSpaceOnUse" gradientTransform="translate(833.194 334.02) rotate(78.6806) scale(14.4718 59.6534)">
<stop stop-color="#3771C8"/>
<stop offset="0.128" stop-color="#3771C8"/>
<stop offset="1" stop-color="#6600FF" stop-opacity="0"/>
</radialGradient>
<radialGradient id="paint10_radial_322_843" cx="0" cy="0" r="1" gradientUnits="userSpaceOnUse" gradientTransform="translate(847.343 366.849) rotate(-90) scale(32.3751 30.1114)">
<stop stop-color="#FFDD55"/>
<stop offset="0.1" stop-color="#FFDD55"/>
<stop offset="0.5" stop-color="#FF543E"/>
<stop offset="1" stop-color="#C837AB"/>
</radialGradient>
<radialGradient id="paint11_radial_322_843" cx="0" cy="0" r="1" gradientUnits="userSpaceOnUse" gradientTransform="translate(833.194 334.02) rotate(78.6806) scale(14.4718 59.6534)">
<stop stop-color="#3771C8"/>
<stop offset="0.128" stop-color="#3771C8"/>
<stop offset="1" stop-color="#6600FF" stop-opacity="0"/>
</radialGradient>
<linearGradient id="paint12_linear_322_843" x1="491" y1="201.5" x2="813" y2="201.5" gradientUnits="userSpaceOnUse">
<stop stop-color="#69C9D0" stop-opacity="0.4"/>
<stop offset="1" stop-color="#69C9D0"/>
</linearGradient>
<radialGradient id="paint13_radial_322_843" cx="0" cy="0" r="1" gradientUnits="userSpaceOnUse" gradientTransform="translate(475 206) rotate(90) scale(156)">
<stop stop-color="#C3C1FD"/>
<stop offset="1" stop-color="white"/>
</radialGradient>
<radialGradient id="paint14_radial_322_843" cx="0" cy="0" r="1" gradientUnits="userSpaceOnUse" gradientTransform="translate(475 206) rotate(90) scale(128)">
<stop stop-color="#C3C1FD"/>
<stop offset="1" stop-color="white"/>
</radialGradient>
<radialGradient id="paint15_radial_322_843" cx="0" cy="0" r="1" gradientUnits="userSpaceOnUse" gradientTransform="translate(475 206) rotate(90) scale(100)">
<stop stop-color="#C3C1FD"/>
<stop offset="1" stop-color="white"/>
</radialGradient>
<linearGradient id="paint16_linear_322_843" x1="484.238" y1="299.185" x2="396.324" y2="192.915" gradientUnits="userSpaceOnUse">
<stop offset="0.425" stop-color="#6962FB"/>
<stop offset="1" stop-color="#EE46BC" stop-opacity="0.7"/>
</linearGradient>
</defs>
</svg>
