<svg width="950" height="464" viewBox="0 0 950 464" fill="none" xmlns="http://www.w3.org/2000/svg">
<path opacity="0.4" d="M107 370L224.051 370C237.858 370 249.051 358.807 249.051 345L249.051 281C249.051 267.193 260.244 256 274.051 256L469 256" stroke="url(#paint0_linear_98_16)" stroke-width="6" stroke-linecap="round" stroke-linejoin="round"/>
<path opacity="0.4" d="M127 63L227.962 63C241.769 63 252.962 74.1929 252.962 88L252.962 151C252.962 164.807 264.155 176 277.962 176L448 176" stroke="url(#paint1_linear_98_16)" stroke-width="6" stroke-linecap="round" stroke-linejoin="round"/>
<g filter="url(#filter0_d_98_16)">
<rect x="63" y="32" width="64" height="64" rx="32" fill="white"/>
<path d="M107.444 51.5566H82.5547C81.7296 51.5566 80.9383 51.8844 80.3548 52.4679C79.7714 53.0513 79.4436 53.8426 79.4436 54.6678V73.3344C79.4436 74.1595 79.7714 74.9509 80.3548 75.5343C80.9383 76.1177 81.7296 76.4455 82.5547 76.4455H107.444C108.269 76.4455 109.06 76.1177 109.643 75.5343C110.227 74.9509 110.555 74.1595 110.555 73.3344V54.6678C110.555 53.8426 110.227 53.0513 109.643 52.4679C109.06 51.8844 108.269 51.5566 107.444 51.5566ZM107.444 58.8678L94.9992 67.1651L82.5547 58.8678V55.1298L94.9992 63.4255L107.444 55.1298V58.8678Z" fill="#17B26A"/>
</g>
<g filter="url(#filter1_d_98_16)">
<rect x="73" y="179" width="64" height="64" rx="32" fill="white"/>
<path d="M92.5554 220.335H95.6666V226.683L103.601 220.335H111.222C112.938 220.335 114.333 218.939 114.333 217.224V204.779C114.333 203.063 112.938 201.668 111.222 201.668H92.5554C90.8397 201.668 89.4443 203.063 89.4443 204.779V217.224C89.4443 218.939 90.8397 220.335 92.5554 220.335Z" fill="#6962FB"/>
<path d="M117.445 195.445H98.7779C97.0621 195.445 95.6667 196.841 95.6667 198.556H114.333C116.049 198.556 117.445 199.952 117.445 201.668V214.112C119.16 214.112 120.556 212.717 120.556 211.001V198.556C120.556 196.841 119.16 195.445 117.445 195.445Z" fill="#6962FB"/>
</g>
<g filter="url(#filter2_d_98_16)">
<rect x="43" y="336" width="64" height="64" rx="32" fill="white"/>
<path d="M85.9805 357.849C85.9576 357.682 85.8113 357.589 85.6904 357.579C85.5698 357.569 83.0164 357.38 83.0164 357.38C83.0164 357.38 81.243 355.617 81.0485 355.422C80.8537 355.227 80.4734 355.287 80.3258 355.33C80.3039 355.337 79.9383 355.45 79.3333 355.637C78.7408 353.931 77.6955 352.363 75.8562 352.363C75.8055 352.363 75.7532 352.365 75.7009 352.368C75.1779 351.676 74.5299 351.375 73.9703 351.375C69.6859 351.375 67.639 356.736 66.9972 359.46C65.3324 359.976 64.1497 360.343 63.9986 360.391C63.0694 360.682 63.04 360.712 62.9181 361.588C62.826 362.252 60.3945 381.072 60.3945 381.072L79.341 384.625L89.607 382.402C89.607 382.402 86.0032 358.016 85.9805 357.849ZM78.2861 355.961C77.8103 356.109 77.2693 356.276 76.683 356.458C76.6835 356.345 76.6841 356.233 76.6841 356.112C76.6841 355.051 76.537 354.198 76.3011 353.521C77.2488 353.64 77.8799 354.719 78.2861 355.961ZM75.1255 353.731C75.3889 354.392 75.5603 355.34 75.5603 356.62C75.5603 356.685 75.5597 356.745 75.5592 356.806C74.5165 357.129 73.3837 357.48 72.2481 357.832C72.8857 355.369 74.0807 354.18 75.1255 353.731ZM73.8526 352.525C74.0375 352.525 74.2238 352.588 74.4021 352.711C73.029 353.357 71.5572 354.986 70.9357 358.239C70.0272 358.52 69.1394 358.795 68.3185 359.05C69.0465 356.569 70.7753 352.525 73.8526 352.525Z" fill="#95BF46"/>
<path d="M85.6891 357.579C85.5685 357.569 83.0151 357.38 83.0151 357.38C83.0151 357.38 81.2417 355.618 81.0472 355.423C80.9743 355.35 80.8761 355.313 80.7734 355.297L79.3408 384.625L89.6057 382.402C89.6057 382.402 86.0019 358.016 85.9792 357.849C85.9563 357.682 85.81 357.589 85.6891 357.579Z" fill="#5E8E3E"/>
<path d="M75.8557 363.256L74.5899 367.025C74.5899 367.025 73.4808 366.432 72.1213 366.432C70.1284 366.432 70.028 367.684 70.028 368C70.028 369.721 74.5109 370.381 74.5109 374.412C74.5109 377.584 72.5008 379.627 69.7905 379.627C66.5381 379.627 64.875 377.601 64.875 377.601L65.7458 374.721C65.7458 374.721 67.4554 376.19 68.8981 376.19C69.8407 376.19 70.2242 375.447 70.2242 374.905C70.2242 372.659 66.5464 372.559 66.5464 368.87C66.5464 365.765 68.7732 362.76 73.2681 362.76C75.0001 362.76 75.8557 363.256 75.8557 363.256Z" fill="white"/>
</g>
<path opacity="0.4" d="M137 211L413 211" stroke="url(#paint2_linear_98_16)" stroke-width="6"/>
<path opacity="0.4" d="M823 349L724.392 349C710.585 349 699.392 337.807 699.392 324L699.392 260C699.392 246.193 688.2 235 674.392 235L508 235" stroke="url(#paint3_linear_98_16)" stroke-width="6" stroke-linecap="round" stroke-linejoin="round"/>
<path opacity="0.4" d="M843 53L736.544 53C722.737 53 711.544 64.1929 711.544 78L711.544 141C711.544 154.807 700.351 166 686.544 166L508 166" stroke="url(#paint4_linear_98_16)" stroke-width="6" stroke-linecap="round" stroke-linejoin="round"/>
<g filter="url(#filter3_d_98_16)">
<rect x="843" y="22" width="64" height="64" rx="32" fill="white"/>
<path d="M875 37.668C866.017 37.668 858.667 45.0549 858.667 54.0834C858.667 62.1844 864.661 68.9147 872.387 70.3346V58.6797H868.303V54.0834H872.387V50.472C872.387 46.3681 875 44.07 878.757 44.07C879.9 44.07 881.207 44.2341 882.35 44.3983V48.5842H880.227C878.267 48.5842 877.777 49.5691 877.777 50.8824V54.0834H882.105L881.37 58.6797H877.777V70.3182C885.494 68.8901 891.333 62.1844 891.333 54.0834C891.333 45.0549 883.983 37.668 875 37.668Z" fill="url(#paint5_linear_98_16)"/>
</g>
<g filter="url(#filter4_d_98_16)">
<rect x="813" y="170" width="64" height="64" rx="32" fill="white"/>
<path d="M836.193 206.425C836.376 204.916 836.995 204.071 838.162 203.204C839.831 202.031 841.916 202.695 841.916 202.695V198.757C842.423 198.744 842.93 198.774 843.432 198.847V203.914C843.432 203.914 841.347 203.25 839.678 204.424C838.512 205.29 837.891 206.136 837.71 207.645C837.704 208.465 837.858 209.537 838.566 210.463C838.391 210.373 838.212 210.271 838.031 210.156C836.47 209.108 836.186 207.536 836.193 206.425ZM852.042 191.476C850.893 190.218 850.459 188.947 850.302 188.055H851.747C851.747 188.055 851.459 190.395 853.558 192.696L853.587 192.727C853.021 192.371 852.502 191.951 852.042 191.476ZM859.001 195.044V200.009C859.001 200.009 857.157 199.937 855.793 199.59C853.888 199.104 852.664 198.36 852.664 198.36C852.664 198.36 851.818 197.829 851.75 197.792V208.046C851.75 208.617 851.593 210.043 851.117 211.232C850.495 212.788 849.534 213.809 849.358 214.017C849.358 214.017 848.19 215.398 846.129 216.327C844.272 217.166 842.641 217.144 842.154 217.166C842.154 217.166 839.335 217.277 836.798 215.629C836.249 215.265 835.737 214.854 835.269 214.4L835.281 214.409C837.818 216.057 840.637 215.946 840.637 215.946C841.125 215.924 842.756 215.946 844.612 215.107C846.671 214.178 847.841 212.797 847.841 212.797C848.016 212.589 848.98 211.567 849.6 210.011C850.075 208.823 850.233 207.396 850.233 206.825V196.573C850.301 196.61 851.147 197.141 851.147 197.141C851.147 197.141 852.371 197.886 854.276 198.371C855.641 198.718 857.484 198.79 857.484 198.79V194.899C858.114 195.041 858.652 195.079 859.001 195.044Z" fill="#EE1D52"/>
<path d="M857.484 194.899V198.789C857.484 198.789 855.641 198.717 854.276 198.37C852.372 197.884 851.147 197.14 851.147 197.14C851.147 197.14 850.302 196.609 850.233 196.571V206.826C850.233 207.397 850.077 208.824 849.6 210.012C848.978 211.569 848.017 212.59 847.841 212.798C847.841 212.798 846.672 214.179 844.612 215.108C842.756 215.947 841.125 215.926 840.637 215.947C840.637 215.947 837.819 216.058 835.281 214.41L835.269 214.401C835.001 214.141 834.749 213.868 834.513 213.581C833.704 212.593 833.207 211.426 833.083 211.093C833.083 211.092 833.083 211.09 833.083 211.089C832.882 210.51 832.46 209.12 832.518 207.773C832.62 205.398 833.456 203.94 833.677 203.575C834.262 202.579 835.023 201.688 835.926 200.941C836.723 200.297 837.626 199.784 838.598 199.424C839.65 199.002 840.776 198.775 841.916 198.757V202.695C841.916 202.695 839.83 202.033 838.162 203.204C836.995 204.071 836.376 204.916 836.194 206.425C836.186 207.536 836.47 209.108 838.029 210.157C838.211 210.272 838.39 210.374 838.565 210.464C838.837 210.818 839.169 211.126 839.546 211.377C841.069 212.341 842.345 212.408 843.977 211.782C845.066 211.364 845.885 210.42 846.265 209.375C846.503 208.722 846.5 208.065 846.5 207.385V188.055H850.298C850.455 188.947 850.89 190.218 852.038 191.476C852.499 191.951 853.017 192.371 853.583 192.727C853.75 192.9 854.605 193.755 855.702 194.28C856.269 194.551 856.867 194.759 857.484 194.899V194.899Z" fill="black"/>
<path d="M831.572 209.885V209.888L831.666 210.143C831.655 210.114 831.62 210.023 831.572 209.885Z" fill="#69C9D0"/>
<path d="M838.599 199.425C837.626 199.785 836.723 200.297 835.926 200.942C835.023 201.69 834.262 202.583 833.677 203.581C833.457 203.945 832.621 205.404 832.519 207.779C832.461 209.126 832.883 210.516 833.084 211.095C833.083 211.096 833.083 211.097 833.084 211.099C833.21 211.429 833.705 212.596 834.514 213.586C834.75 213.873 835.002 214.147 835.27 214.407C834.411 213.838 833.646 213.15 832.998 212.366C832.196 211.387 831.701 210.232 831.571 209.891C831.571 209.888 831.571 209.886 831.571 209.884V209.879C831.37 209.301 830.947 207.91 831.006 206.562C831.108 204.187 831.944 202.729 832.165 202.364C832.749 201.366 833.51 200.473 834.413 199.724C835.21 199.08 836.113 198.567 837.086 198.208C837.693 197.966 838.325 197.788 838.971 197.677C839.945 197.514 840.94 197.5 841.919 197.635V198.757C840.778 198.775 839.651 199.002 838.599 199.425Z" fill="#69C9D0"/>
<path d="M850.301 188.055H846.503V207.386C846.503 208.065 846.503 208.721 846.268 209.375C845.884 210.42 845.068 211.364 843.98 211.782C842.348 212.411 841.072 212.341 839.549 211.377C839.171 211.127 838.839 210.82 838.565 210.467C839.863 211.13 841.024 211.118 842.462 210.565C843.549 210.146 844.366 209.203 844.748 208.158C844.988 207.505 844.984 206.848 844.984 206.169V186.834H850.229C850.229 186.834 850.17 187.315 850.301 188.055ZM857.484 193.824V194.899C856.868 194.759 856.271 194.551 855.705 194.28C854.608 193.755 853.753 192.9 853.586 192.727C853.78 192.849 853.981 192.96 854.189 193.06C855.523 193.698 856.836 193.888 857.484 193.824Z" fill="#69C9D0"/>
</g>
<g filter="url(#filter5_d_98_16)">
<rect x="823" y="316" width="64" height="64" rx="32" fill="white"/>
<path d="M864.399 340.888C864.18 340.325 863.919 339.923 863.497 339.501C863.075 339.079 862.673 338.817 862.11 338.599C861.685 338.433 861.047 338.237 859.871 338.184C858.6 338.126 858.218 338.114 854.997 338.114C854.595 338.114 854.236 338.114 853.914 338.114C851.666 338.114 851.236 338.129 850.123 338.179C848.947 338.232 848.309 338.428 847.884 338.594C847.322 338.812 846.92 339.074 846.498 339.496C846.075 339.918 845.814 340.32 845.596 340.883C845.43 341.308 845.234 341.946 845.181 343.122C845.123 344.394 845.111 344.773 845.111 347.995C845.111 351.217 845.123 351.599 845.181 352.87C845.234 354.046 845.432 354.685 845.596 355.109C845.814 355.672 846.075 356.074 846.498 356.496C846.92 356.919 847.322 357.18 847.884 357.399C848.309 357.564 848.947 357.76 850.123 357.816C851.394 357.874 851.776 357.886 854.997 357.886C858.218 357.886 858.6 357.874 859.871 357.816C861.047 357.763 861.685 357.567 862.11 357.401C862.673 357.183 863.075 356.921 863.497 356.499C863.919 356.077 864.18 355.677 864.399 355.114C864.564 354.69 864.76 354.051 864.813 352.875C864.871 351.604 864.884 351.222 864.884 348.002C864.884 344.783 864.871 344.401 864.813 343.13C864.76 341.954 864.562 341.315 864.399 340.891V340.888ZM854.997 354.197C851.578 354.197 848.804 351.425 848.804 348.002C848.804 344.58 851.578 341.808 854.997 341.808C858.417 341.808 861.19 344.582 861.19 348.002C861.19 351.423 858.419 354.197 854.997 354.197ZM861.434 343.012C860.635 343.012 859.987 342.363 859.987 341.564C859.987 340.765 860.635 340.117 861.434 340.117C862.233 340.117 862.881 340.765 862.881 341.564C862.881 342.363 862.233 343.012 861.434 343.012Z" fill="url(#paint6_radial_98_16)"/>
<path d="M864.399 340.888C864.18 340.325 863.919 339.923 863.497 339.501C863.075 339.079 862.673 338.817 862.11 338.599C861.685 338.433 861.047 338.237 859.871 338.184C858.6 338.126 858.218 338.114 854.997 338.114C854.595 338.114 854.236 338.114 853.914 338.114C851.666 338.114 851.236 338.129 850.123 338.179C848.947 338.232 848.309 338.428 847.884 338.594C847.322 338.812 846.92 339.074 846.498 339.496C846.075 339.918 845.814 340.32 845.596 340.883C845.43 341.308 845.234 341.946 845.181 343.122C845.123 344.394 845.111 344.773 845.111 347.995C845.111 351.217 845.123 351.599 845.181 352.87C845.234 354.046 845.432 354.685 845.596 355.109C845.814 355.672 846.075 356.074 846.498 356.496C846.92 356.919 847.322 357.18 847.884 357.399C848.309 357.564 848.947 357.76 850.123 357.816C851.394 357.874 851.776 357.886 854.997 357.886C858.218 357.886 858.6 357.874 859.871 357.816C861.047 357.763 861.685 357.567 862.11 357.401C862.673 357.183 863.075 356.921 863.497 356.499C863.919 356.077 864.18 355.677 864.399 355.114C864.564 354.69 864.76 354.051 864.813 352.875C864.871 351.604 864.884 351.222 864.884 348.002C864.884 344.783 864.871 344.401 864.813 343.13C864.76 341.954 864.562 341.315 864.399 340.891V340.888ZM854.997 354.197C851.578 354.197 848.804 351.425 848.804 348.002C848.804 344.58 851.578 341.808 854.997 341.808C858.417 341.808 861.19 344.582 861.19 348.002C861.19 351.423 858.419 354.197 854.997 354.197ZM861.434 343.012C860.635 343.012 859.987 342.363 859.987 341.564C859.987 340.765 860.635 340.117 861.434 340.117C862.233 340.117 862.881 340.765 862.881 341.564C862.881 342.363 862.233 343.012 861.434 343.012Z" fill="url(#paint7_radial_98_16)"/>
<path d="M854.997 352.023C857.217 352.023 859.017 350.223 859.017 348.003C859.017 345.782 857.217 343.982 854.997 343.982C852.777 343.982 850.977 345.782 850.977 348.003C850.977 350.223 852.777 352.023 854.997 352.023Z" fill="url(#paint8_radial_98_16)"/>
<path d="M854.997 352.023C857.217 352.023 859.017 350.223 859.017 348.003C859.017 345.782 857.217 343.982 854.997 343.982C852.777 343.982 850.977 345.782 850.977 348.003C850.977 350.223 852.777 352.023 854.997 352.023Z" fill="url(#paint9_radial_98_16)"/>
<path d="M871.303 338.747C871.2 337.435 870.976 336.553 870.516 335.621C870.14 334.857 869.722 334.289 869.117 333.706C868.037 332.673 866.715 332.045 865.14 331.819C864.376 331.708 864.225 331.676 860.321 331.668H855.005C848.186 331.668 846.191 331.676 845.804 331.708C844.405 331.824 843.533 332.045 842.586 332.517C841.855 332.882 841.277 333.301 840.709 333.892C839.671 334.968 839.043 336.289 838.817 337.865C838.706 338.629 838.674 338.785 838.666 342.685C838.666 343.987 838.666 345.698 838.666 347.995C838.666 354.81 838.674 356.803 838.706 357.19C838.82 358.552 839.033 359.409 839.485 360.346C840.35 362.141 842 363.488 843.945 363.99C844.618 364.164 845.362 364.259 846.317 364.304C846.721 364.322 850.844 364.335 854.969 364.335C859.095 364.335 863.22 364.33 863.615 364.31C864.72 364.257 865.363 364.171 866.072 363.988C868.029 363.483 869.65 362.156 870.531 360.336C870.974 359.422 871.2 358.532 871.303 357.24C871.325 356.959 871.333 352.471 871.333 347.99C871.333 343.509 871.323 339.029 871.3 338.747H871.303ZM866.984 352.976C866.924 354.26 866.72 355.137 866.424 355.903C866.115 356.698 865.703 357.369 865.032 358.04C864.361 358.711 863.69 359.123 862.896 359.432C862.13 359.731 861.251 359.934 859.967 359.992C858.68 360.05 858.271 360.065 854.995 360.065C851.718 360.065 851.309 360.05 850.022 359.992C848.739 359.934 847.862 359.731 847.095 359.432C846.302 359.123 845.631 358.711 844.96 358.04C844.289 357.369 843.877 356.695 843.568 355.903C843.269 355.137 843.068 354.26 843.008 352.976C842.95 351.689 842.935 351.28 842.935 348.003C842.935 344.726 842.95 344.316 843.008 343.029C843.066 341.745 843.269 340.868 843.568 340.102C843.877 339.308 844.289 338.637 844.96 337.966C845.631 337.295 846.304 336.882 847.095 336.576C847.862 336.277 848.739 336.073 850.022 336.015C851.309 335.958 851.721 335.943 854.992 335.943H854.997C858.271 335.943 858.68 335.958 859.967 336.015C861.251 336.073 862.127 336.277 862.896 336.576C863.69 336.882 864.361 337.295 865.032 337.966C865.703 338.637 866.115 339.31 866.424 340.102C866.72 340.868 866.924 341.745 866.984 343.029C867.042 344.316 867.057 344.728 867.057 348.003C867.057 351.277 867.042 351.689 866.984 352.976Z" fill="url(#paint10_radial_98_16)"/>
<path d="M871.303 338.747C871.2 337.435 870.976 336.553 870.516 335.621C870.14 334.857 869.722 334.289 869.117 333.706C868.037 332.673 866.715 332.045 865.14 331.819C864.376 331.708 864.225 331.676 860.321 331.668H855.005C848.186 331.668 846.191 331.676 845.804 331.708C844.405 331.824 843.533 332.045 842.586 332.517C841.855 332.882 841.277 333.301 840.709 333.892C839.671 334.968 839.043 336.289 838.817 337.865C838.706 338.629 838.674 338.785 838.666 342.685C838.666 343.987 838.666 345.698 838.666 347.995C838.666 354.81 838.674 356.803 838.706 357.19C838.82 358.552 839.033 359.409 839.485 360.346C840.35 362.141 842 363.488 843.945 363.99C844.618 364.164 845.362 364.259 846.317 364.304C846.721 364.322 850.844 364.335 854.969 364.335C859.095 364.335 863.22 364.33 863.615 364.31C864.72 364.257 865.363 364.171 866.072 363.988C868.029 363.483 869.65 362.156 870.531 360.336C870.974 359.422 871.2 358.532 871.303 357.24C871.325 356.959 871.333 352.471 871.333 347.99C871.333 343.509 871.323 339.029 871.3 338.747H871.303ZM866.984 352.976C866.924 354.26 866.72 355.137 866.424 355.903C866.115 356.698 865.703 357.369 865.032 358.04C864.361 358.711 863.69 359.123 862.896 359.432C862.13 359.731 861.251 359.934 859.967 359.992C858.68 360.05 858.271 360.065 854.995 360.065C851.718 360.065 851.309 360.05 850.022 359.992C848.739 359.934 847.862 359.731 847.095 359.432C846.302 359.123 845.631 358.711 844.96 358.04C844.289 357.369 843.877 356.695 843.568 355.903C843.269 355.137 843.068 354.26 843.008 352.976C842.95 351.689 842.935 351.28 842.935 348.003C842.935 344.726 842.95 344.316 843.008 343.029C843.066 341.745 843.269 340.868 843.568 340.102C843.877 339.308 844.289 338.637 844.96 337.966C845.631 337.295 846.304 336.882 847.095 336.576C847.862 336.277 848.739 336.073 850.022 336.015C851.309 335.958 851.721 335.943 854.992 335.943H854.997C858.271 335.943 858.68 335.958 859.967 336.015C861.251 336.073 862.127 336.277 862.896 336.576C863.69 336.882 864.361 337.295 865.032 337.966C865.703 338.637 866.115 339.31 866.424 340.102C866.72 340.868 866.924 341.745 866.984 343.029C867.042 344.316 867.057 344.728 867.057 348.003C867.057 351.277 867.042 351.689 866.984 352.976Z" fill="url(#paint11_radial_98_16)"/>
</g>
<path opacity="0.4" d="M813 202L491 202" stroke="url(#paint12_linear_98_16)" stroke-width="6"/>
<rect x="319" y="50" width="312" height="312" rx="156" fill="url(#paint13_radial_98_16)" fill-opacity="0.6"/>
<rect x="319" y="50" width="312" height="312" rx="156" stroke="#C3C1FD" stroke-opacity="0.15" stroke-width="2" stroke-linecap="round" stroke-linejoin="round"/>
<rect x="347" y="78" width="256" height="256" rx="128" fill="url(#paint14_radial_98_16)" fill-opacity="0.6"/>
<rect x="347" y="78" width="256" height="256" rx="128" stroke="#C3C1FD" stroke-opacity="0.2" stroke-width="2" stroke-linecap="round" stroke-linejoin="round"/>
<rect x="375" y="106" width="200" height="200" rx="100" fill="url(#paint15_radial_98_16)" fill-opacity="0.6"/>
<rect x="375" y="106" width="200" height="200" rx="100" stroke="#C3C1FD" stroke-opacity="0.25" stroke-width="2" stroke-linecap="round" stroke-linejoin="round"/>
<rect x="395.493" y="126.494" width="158.9" height="158.9" rx="79.4502" fill="#FAF9FC"/>
<g filter="url(#filter6_d_98_16)">
<rect x="401.49" y="132.49" width="146.908" height="146.908" rx="73.454" fill="white" fill-opacity="0.73" shape-rendering="crispEdges"/>
<rect x="401.79" y="132.79" width="146.308" height="146.308" rx="73.1542" stroke="white" stroke-width="0.599625" stroke-linecap="round" shape-rendering="crispEdges"/>
</g>
<g filter="url(#filter7_d_98_16)">
<rect x="411.084" y="142.084" width="127.72" height="127.72" rx="63.86" fill="white"/>
<rect x="411.384" y="142.384" width="127.12" height="127.12" rx="63.5602" stroke="#5572F6" stroke-opacity="0.16" stroke-width="0.599625" stroke-linecap="round"/>
</g>
<g filter="url(#filter8_d_98_16)">
<path d="M417.679 205.944C417.679 174.318 443.317 148.68 474.944 148.68V148.68C506.57 148.68 532.208 174.318 532.208 205.944V205.944C532.208 237.57 506.57 263.208 474.944 263.208V263.208C443.317 263.208 417.679 237.57 417.679 205.944V205.944Z" fill="url(#paint16_linear_98_16)" shape-rendering="crispEdges"/>
</g>
<mask id="mask0_98_16" style="mask-type:luminance" maskUnits="userSpaceOnUse" x="471" y="218" width="7" height="8">
<path d="M471.571 218.215H477.559V226.001H471.571V218.215Z" fill="white"/>
</mask>
<g mask="url(#mask0_98_16)">
<path d="M474.687 218.467C474.534 219.041 473.426 219.958 471.896 220.838L472.431 221.832L474.687 225.887L476.946 221.832L477.48 220.838C475.95 219.958 474.84 219.041 474.687 218.467Z" fill="white"/>
</g>
<mask id="mask1_98_16" style="mask-type:luminance" maskUnits="userSpaceOnUse" x="446" y="190" width="58" height="31">
<path d="M446 190H503.258V220.057H446V190Z" fill="white"/>
</mask>
<g mask="url(#mask1_98_16)">
<path d="M503.261 190.045L474.687 198.651L446.115 190.045C446.038 190.313 446 190.581 446 190.81C446 191.958 446.765 193.068 447.913 193.412L449.329 193.833L466.808 199.11C470.711 200.296 473.235 203.853 473.311 207.717C473.311 207.794 473.311 207.869 473.311 207.985C473.311 209.476 472.929 210.968 472.125 212.422C470.137 215.941 465.968 217.777 462.065 216.821C459.465 216.208 457.322 214.563 456.06 212.231C454.912 210.088 454.644 207.601 455.371 205.269C455.564 204.695 455.792 204.121 456.06 203.585C453.192 205.69 452.312 210.281 453.421 212.996C453.804 213.798 454.263 214.563 454.837 215.29C455.83 216.591 457.131 217.662 458.623 218.426C460.42 219.346 462.295 219.805 464.17 219.805C468.53 219.805 472.622 217.356 474.687 213.417C476.753 217.356 480.847 219.805 485.206 219.805C487.044 219.805 488.917 219.384 490.714 218.426C492.168 217.662 493.469 216.591 494.502 215.29C495.076 214.563 495.535 213.798 495.916 212.996C497.027 210.241 496.147 205.69 493.278 203.585C493.584 204.121 493.813 204.695 493.966 205.269C494.693 207.601 494.425 210.088 493.278 212.231C492.015 214.563 489.874 216.208 487.272 216.821C483.333 217.739 479.202 215.902 477.212 212.422C476.372 210.968 476.026 209.439 476.026 207.985C476.026 207.909 476.026 207.832 476.026 207.717C476.103 203.853 478.628 200.296 482.529 199.11L500.01 193.833L501.464 193.412C502.65 193.068 503.377 191.995 503.377 190.81C503.377 190.543 503.337 190.313 503.261 190.045Z" fill="white"/>
</g>
<path d="M485.206 211.35C483.294 211.35 481.764 209.819 481.764 207.908C481.764 205.995 483.294 204.464 485.206 204.464C485.59 204.464 486.011 204.542 486.354 204.657C485.78 204.847 485.359 205.384 485.359 206.033C485.359 206.836 486.011 207.487 486.813 207.487C487.54 207.487 488.152 206.951 488.229 206.262C488.496 206.76 488.649 207.334 488.649 207.946C488.649 209.819 487.119 211.35 485.206 211.35ZM483.409 201.366C479.967 202.398 477.786 205.918 478.59 209.4C479.317 212.574 482.147 214.64 485.169 214.64C485.818 214.64 486.47 214.562 487.119 214.334C488.841 213.798 490.255 212.65 491.135 211.044C491.977 209.438 492.168 207.64 491.634 205.88C491.213 204.464 490.333 203.241 489.147 202.398L491.824 201.596L494.655 200.754L496.222 200.295C497.408 199.951 498.135 198.881 498.135 197.695C498.135 197.427 498.097 197.159 498.022 196.891L483.409 201.366Z" fill="white"/>
<path d="M464.17 204.466C464.552 204.466 464.973 204.543 465.316 204.658C464.742 204.849 464.323 205.385 464.323 206.035C464.323 206.837 464.973 207.489 465.775 207.489C466.502 207.489 467.114 206.952 467.191 206.263C467.459 206.762 467.612 207.336 467.612 207.947C467.612 209.86 466.081 211.39 464.17 211.39C462.257 211.39 460.726 209.86 460.726 207.947C460.726 205.997 462.257 204.466 464.17 204.466ZM454.644 200.795L457.475 201.635L460.152 202.44C458.966 203.28 458.126 204.505 457.667 205.919C457.131 207.641 457.322 209.477 458.164 211.084C459.006 212.691 460.46 213.837 462.18 214.373C462.83 214.564 463.481 214.679 464.131 214.679C467.191 214.679 469.984 212.613 470.711 209.439C471.513 205.919 469.333 202.44 465.89 201.407L451.279 196.932C451.202 197.198 451.164 197.466 451.164 197.734C451.164 198.882 451.929 199.991 453.077 200.336L454.644 200.795Z" fill="white"/>
<rect x="120" y="56" width="14" height="14" rx="7" fill="#17B26A"/>
<rect x="120" y="56" width="14" height="14" rx="7" stroke="white" stroke-width="2"/>
<rect x="835" y="46" width="14" height="14" rx="7" fill="#0D89F0"/>
<rect x="835" y="46" width="14" height="14" rx="7" stroke="white" stroke-width="2"/>
<rect x="130" y="204" width="14" height="14" rx="7" fill="#6962FB"/>
<rect x="130" y="204" width="14" height="14" rx="7" stroke="white" stroke-width="2"/>
<rect x="804" y="195" width="14" height="14" rx="7" fill="#69C9D0"/>
<rect x="804" y="195" width="14" height="14" rx="7" stroke="white" stroke-width="2"/>
<rect x="100" y="364" width="14" height="14" rx="7" fill="#95BF46"/>
<rect x="100" y="364" width="14" height="14" rx="7" stroke="white" stroke-width="2"/>
<rect x="813" y="342" width="14" height="14" rx="7" fill="#F04C5E"/>
<rect x="813" y="342" width="14" height="14" rx="7" stroke="white" stroke-width="2"/>
<defs>
<filter id="filter0_d_98_16" x="20.3333" y="10.6667" width="149.333" height="149.333" filterUnits="userSpaceOnUse" color-interpolation-filters="sRGB">
<feFlood flood-opacity="0" result="BackgroundImageFix"/>
<feColorMatrix in="SourceAlpha" type="matrix" values="0 0 0 0 0 0 0 0 0 0 0 0 0 0 0 0 0 0 127 0" result="hardAlpha"/>
<feOffset dy="21.3333"/>
<feGaussianBlur stdDeviation="21.3333"/>
<feComposite in2="hardAlpha" operator="out"/>
<feColorMatrix type="matrix" values="0 0 0 0 0.0901961 0 0 0 0 0.698039 0 0 0 0 0.415686 0 0 0 0.2 0"/>
<feBlend mode="normal" in2="BackgroundImageFix" result="effect1_dropShadow_98_16"/>
<feBlend mode="normal" in="SourceGraphic" in2="effect1_dropShadow_98_16" result="shape"/>
</filter>
<filter id="filter1_d_98_16" x="30.3333" y="157.667" width="149.333" height="149.333" filterUnits="userSpaceOnUse" color-interpolation-filters="sRGB">
<feFlood flood-opacity="0" result="BackgroundImageFix"/>
<feColorMatrix in="SourceAlpha" type="matrix" values="0 0 0 0 0 0 0 0 0 0 0 0 0 0 0 0 0 0 127 0" result="hardAlpha"/>
<feOffset dy="21.3333"/>
<feGaussianBlur stdDeviation="21.3333"/>
<feComposite in2="hardAlpha" operator="out"/>
<feColorMatrix type="matrix" values="0 0 0 0 0.411765 0 0 0 0 0.384314 0 0 0 0 0.984314 0 0 0 0.2 0"/>
<feBlend mode="normal" in2="BackgroundImageFix" result="effect1_dropShadow_98_16"/>
<feBlend mode="normal" in="SourceGraphic" in2="effect1_dropShadow_98_16" result="shape"/>
</filter>
<filter id="filter2_d_98_16" x="0.333332" y="314.667" width="149.333" height="149.333" filterUnits="userSpaceOnUse" color-interpolation-filters="sRGB">
<feFlood flood-opacity="0" result="BackgroundImageFix"/>
<feColorMatrix in="SourceAlpha" type="matrix" values="0 0 0 0 0 0 0 0 0 0 0 0 0 0 0 0 0 0 127 0" result="hardAlpha"/>
<feOffset dy="21.3333"/>
<feGaussianBlur stdDeviation="21.3333"/>
<feComposite in2="hardAlpha" operator="out"/>
<feColorMatrix type="matrix" values="0 0 0 0 0.584314 0 0 0 0 0.74902 0 0 0 0 0.27451 0 0 0 0.2 0"/>
<feBlend mode="normal" in2="BackgroundImageFix" result="effect1_dropShadow_98_16"/>
<feBlend mode="normal" in="SourceGraphic" in2="effect1_dropShadow_98_16" result="shape"/>
</filter>
<filter id="filter3_d_98_16" x="800.333" y="0.666666" width="149.333" height="149.333" filterUnits="userSpaceOnUse" color-interpolation-filters="sRGB">
<feFlood flood-opacity="0" result="BackgroundImageFix"/>
<feColorMatrix in="SourceAlpha" type="matrix" values="0 0 0 0 0 0 0 0 0 0 0 0 0 0 0 0 0 0 127 0" result="hardAlpha"/>
<feOffset dy="21.3333"/>
<feGaussianBlur stdDeviation="21.3333"/>
<feComposite in2="hardAlpha" operator="out"/>
<feColorMatrix type="matrix" values="0 0 0 0 0.0509804 0 0 0 0 0.537255 0 0 0 0 0.941176 0 0 0 0.2 0"/>
<feBlend mode="normal" in2="BackgroundImageFix" result="effect1_dropShadow_98_16"/>
<feBlend mode="normal" in="SourceGraphic" in2="effect1_dropShadow_98_16" result="shape"/>
</filter>
<filter id="filter4_d_98_16" x="770.333" y="148.667" width="149.333" height="149.333" filterUnits="userSpaceOnUse" color-interpolation-filters="sRGB">
<feFlood flood-opacity="0" result="BackgroundImageFix"/>
<feColorMatrix in="SourceAlpha" type="matrix" values="0 0 0 0 0 0 0 0 0 0 0 0 0 0 0 0 0 0 127 0" result="hardAlpha"/>
<feOffset dy="21.3333"/>
<feGaussianBlur stdDeviation="21.3333"/>
<feComposite in2="hardAlpha" operator="out"/>
<feColorMatrix type="matrix" values="0 0 0 0 0.411765 0 0 0 0 0.788235 0 0 0 0 0.815686 0 0 0 0.2 0"/>
<feBlend mode="normal" in2="BackgroundImageFix" result="effect1_dropShadow_98_16"/>
<feBlend mode="normal" in="SourceGraphic" in2="effect1_dropShadow_98_16" result="shape"/>
</filter>
<filter id="filter5_d_98_16" x="780.333" y="294.667" width="149.333" height="149.333" filterUnits="userSpaceOnUse" color-interpolation-filters="sRGB">
<feFlood flood-opacity="0" result="BackgroundImageFix"/>
<feColorMatrix in="SourceAlpha" type="matrix" values="0 0 0 0 0 0 0 0 0 0 0 0 0 0 0 0 0 0 127 0" result="hardAlpha"/>
<feOffset dy="21.3333"/>
<feGaussianBlur stdDeviation="21.3333"/>
<feComposite in2="hardAlpha" operator="out"/>
<feColorMatrix type="matrix" values="0 0 0 0 0.941176 0 0 0 0 0.298039 0 0 0 0 0.368627 0 0 0 0.2 0"/>
<feBlend mode="normal" in2="BackgroundImageFix" result="effect1_dropShadow_98_16"/>
<feBlend mode="normal" in="SourceGraphic" in2="effect1_dropShadow_98_16" result="shape"/>
</filter>
<filter id="filter6_d_98_16" x="386.499" y="128.293" width="176.889" height="176.889" filterUnits="userSpaceOnUse" color-interpolation-filters="sRGB">
<feFlood flood-opacity="0" result="BackgroundImageFix"/>
<feColorMatrix in="SourceAlpha" type="matrix" values="0 0 0 0 0 0 0 0 0 0 0 0 0 0 0 0 0 0 127 0" result="hardAlpha"/>
<feMorphology radius="11.3929" operator="erode" in="SourceAlpha" result="effect1_dropShadow_98_16"/>
<feOffset dy="10.7932"/>
<feGaussianBlur stdDeviation="13.1917"/>
<feComposite in2="hardAlpha" operator="out"/>
<feColorMatrix type="matrix" values="0 0 0 0 0.72549 0 0 0 0 0.552941 0 0 0 0 1 0 0 0 1 0"/>
<feBlend mode="normal" in2="BackgroundImageFix" result="effect1_dropShadow_98_16"/>
<feBlend mode="normal" in="SourceGraphic" in2="effect1_dropShadow_98_16" result="shape"/>
</filter>
<filter id="filter7_d_98_16" x="396.093" y="137.887" width="157.701" height="157.702" filterUnits="userSpaceOnUse" color-interpolation-filters="sRGB">
<feFlood flood-opacity="0" result="BackgroundImageFix"/>
<feColorMatrix in="SourceAlpha" type="matrix" values="0 0 0 0 0 0 0 0 0 0 0 0 0 0 0 0 0 0 127 0" result="hardAlpha"/>
<feMorphology radius="11.3929" operator="erode" in="SourceAlpha" result="effect1_dropShadow_98_16"/>
<feOffset dy="10.7932"/>
<feGaussianBlur stdDeviation="13.1917"/>
<feComposite in2="hardAlpha" operator="out"/>
<feColorMatrix type="matrix" values="0 0 0 0 0.705882 0 0 0 0 0.537255 0 0 0 0 1 0 0 0 0.39 0"/>
<feBlend mode="normal" in2="BackgroundImageFix" result="effect1_dropShadow_98_16"/>
<feBlend mode="normal" in="SourceGraphic" in2="effect1_dropShadow_98_16" result="shape"/>
</filter>
<filter id="filter8_d_98_16" x="415.281" y="148.68" width="119.325" height="119.324" filterUnits="userSpaceOnUse" color-interpolation-filters="sRGB">
<feFlood flood-opacity="0" result="BackgroundImageFix"/>
<feColorMatrix in="SourceAlpha" type="matrix" values="0 0 0 0 0 0 0 0 0 0 0 0 0 0 0 0 0 0 127 0" result="hardAlpha"/>
<feOffset dy="2.3985"/>
<feGaussianBlur stdDeviation="1.19925"/>
<feComposite in2="hardAlpha" operator="out"/>
<feColorMatrix type="matrix" values="0 0 0 0 0.384314 0 0 0 0 0.454902 0 0 0 0 0.972549 0 0 0 0.39 0"/>
<feBlend mode="normal" in2="BackgroundImageFix" result="effect1_dropShadow_98_16"/>
<feBlend mode="normal" in="SourceGraphic" in2="effect1_dropShadow_98_16" result="shape"/>
</filter>
<linearGradient id="paint0_linear_98_16" x1="288" y1="370" x2="288" y2="256" gradientUnits="userSpaceOnUse">
<stop stop-color="#95BF46"/>
<stop offset="1" stop-color="#95BF46" stop-opacity="0.4"/>
</linearGradient>
<linearGradient id="paint1_linear_98_16" x1="287.5" y1="63" x2="287.5" y2="176" gradientUnits="userSpaceOnUse">
<stop stop-color="#17B26A"/>
<stop offset="1" stop-color="#17B26A" stop-opacity="0.4"/>
</linearGradient>
<linearGradient id="paint2_linear_98_16" x1="137" y1="211.5" x2="413" y2="211.5" gradientUnits="userSpaceOnUse">
<stop stop-color="#6962FB"/>
<stop offset="1" stop-color="#6962FB" stop-opacity="0.4"/>
</linearGradient>
<linearGradient id="paint3_linear_98_16" x1="665.5" y1="235" x2="665.5" y2="349" gradientUnits="userSpaceOnUse">
<stop stop-color="#F04C5E" stop-opacity="0.4"/>
<stop offset="1" stop-color="#F04C5E"/>
</linearGradient>
<linearGradient id="paint4_linear_98_16" x1="675.5" y1="166" x2="675.5" y2="53" gradientUnits="userSpaceOnUse">
<stop stop-color="#0D89F0" stop-opacity="0.4"/>
<stop offset="1" stop-color="#0D89F0"/>
</linearGradient>
<linearGradient id="paint5_linear_98_16" x1="875" y1="69.3579" x2="875" y2="37.668" gradientUnits="userSpaceOnUse">
<stop stop-color="#0062E0"/>
<stop offset="1" stop-color="#19AFFF"/>
</linearGradient>
<radialGradient id="paint6_radial_98_16" cx="0" cy="0" r="1" gradientUnits="userSpaceOnUse" gradientTransform="translate(847.343 366.851) rotate(-90) scale(32.3751 30.1114)">
<stop stop-color="#FFDD55"/>
<stop offset="0.1" stop-color="#FFDD55"/>
<stop offset="0.5" stop-color="#FF543E"/>
<stop offset="1" stop-color="#C837AB"/>
</radialGradient>
<radialGradient id="paint7_radial_98_16" cx="0" cy="0" r="1" gradientUnits="userSpaceOnUse" gradientTransform="translate(833.194 334.021) rotate(78.6806) scale(14.4718 59.6534)">
<stop stop-color="#3771C8"/>
<stop offset="0.128" stop-color="#3771C8"/>
<stop offset="1" stop-color="#6600FF" stop-opacity="0"/>
</radialGradient>
<radialGradient id="paint8_radial_98_16" cx="0" cy="0" r="1" gradientUnits="userSpaceOnUse" gradientTransform="translate(847.343 366.851) rotate(-90) scale(32.3751 30.1114)">
<stop stop-color="#FFDD55"/>
<stop offset="0.1" stop-color="#FFDD55"/>
<stop offset="0.5" stop-color="#FF543E"/>
<stop offset="1" stop-color="#C837AB"/>
</radialGradient>
<radialGradient id="paint9_radial_98_16" cx="0" cy="0" r="1" gradientUnits="userSpaceOnUse" gradientTransform="translate(833.194 334.021) rotate(78.6806) scale(14.4718 59.6534)">
<stop stop-color="#3771C8"/>
<stop offset="0.128" stop-color="#3771C8"/>
<stop offset="1" stop-color="#6600FF" stop-opacity="0"/>
</radialGradient>
<radialGradient id="paint10_radial_98_16" cx="0" cy="0" r="1" gradientUnits="userSpaceOnUse" gradientTransform="translate(847.343 366.851) rotate(-90) scale(32.3751 30.1114)">
<stop stop-color="#FFDD55"/>
<stop offset="0.1" stop-color="#FFDD55"/>
<stop offset="0.5" stop-color="#FF543E"/>
<stop offset="1" stop-color="#C837AB"/>
</radialGradient>
<radialGradient id="paint11_radial_98_16" cx="0" cy="0" r="1" gradientUnits="userSpaceOnUse" gradientTransform="translate(833.194 334.021) rotate(78.6806) scale(14.4718 59.6534)">
<stop stop-color="#3771C8"/>
<stop offset="0.128" stop-color="#3771C8"/>
<stop offset="1" stop-color="#6600FF" stop-opacity="0"/>
</radialGradient>
<linearGradient id="paint12_linear_98_16" x1="491" y1="201.5" x2="813" y2="201.5" gradientUnits="userSpaceOnUse">
<stop stop-color="#69C9D0" stop-opacity="0.4"/>
<stop offset="1" stop-color="#69C9D0"/>
</linearGradient>
<radialGradient id="paint13_radial_98_16" cx="0" cy="0" r="1" gradientUnits="userSpaceOnUse" gradientTransform="translate(475 206) rotate(90) scale(156)">
<stop stop-color="#C3C1FD"/>
<stop offset="1" stop-color="white"/>
</radialGradient>
<radialGradient id="paint14_radial_98_16" cx="0" cy="0" r="1" gradientUnits="userSpaceOnUse" gradientTransform="translate(475 206) rotate(90) scale(128)">
<stop stop-color="#C3C1FD"/>
<stop offset="1" stop-color="white"/>
</radialGradient>
<radialGradient id="paint15_radial_98_16" cx="0" cy="0" r="1" gradientUnits="userSpaceOnUse" gradientTransform="translate(475 206) rotate(90) scale(100)">
<stop stop-color="#C3C1FD"/>
<stop offset="1" stop-color="white"/>
</radialGradient>
<linearGradient id="paint16_linear_98_16" x1="484.238" y1="299.185" x2="396.324" y2="192.915" gradientUnits="userSpaceOnUse">
<stop offset="0.425" stop-color="#6962FB"/>
<stop offset="1" stop-color="#EE46BC" stop-opacity="0.7"/>
</linearGradient>
</defs>
</svg>
