<svg width="132" height="32" viewBox="0 0 132 32" fill="none" xmlns="http://www.w3.org/2000/svg">
<path fill-rule="evenodd" clip-rule="evenodd" d="M17.7864 1.34267C18.0845 1.18716 18.4407 1.19182 18.7346 1.35506L25.4856 5.10507C25.8031 5.28144 26 5.6161 26 5.97932L25.9995 13.479C25.9995 13.8516 25.7924 14.1932 25.4621 14.3655L8.21309 23.3653C7.91501 23.5208 7.55873 23.5161 7.26483 23.3528L0.51563 19.6029C0.198239 19.4266 0.00137172 19.092 0.00130838 18.729L1.52984e-08 11.2292C-6.49935e-05 10.8565 0.207059 10.5148 0.537424 10.3424L17.7864 1.34267ZM2.00011 11.8351L2.00102 17.0792L17.2502 9.12291L17.2493 3.87878L2.00011 11.8351ZM19.2493 3.92881L19.2502 9.1406L23.9996 11.7794L24 6.56768L19.2493 3.92881ZM22.8908 13.4513L18.2354 10.8647L3.11008 18.7565L7.76541 21.343L22.8908 13.4513Z" fill="#1570EF"/>
<path opacity="0.5" fill-rule="evenodd" clip-rule="evenodd" d="M8.21356 30.8658C7.91551 31.0213 7.55927 31.0167 7.26539 30.8534L0.514416 27.1034C0.196902 26.9271 -1.869e-05 26.5924 4.22996e-06 26.2292L0.000470279 18.7295C0.000493199 18.3569 0.207605 18.0153 0.537893 17.843L17.7869 8.84322C18.085 8.68769 18.4413 8.69237 18.7352 8.85566L25.4844 12.6056C25.8018 12.7819 25.9986 13.1164 25.9987 13.4795L26 20.9793C26.0001 21.352 25.7929 21.6937 25.4626 21.8661L8.21356 30.8658ZM23.9999 20.3734L23.999 15.1292L8.74978 23.0856L8.75069 28.3297L23.9999 20.3734ZM6.75068 28.2797L6.74978 23.0679L2.00037 20.4291L2.00004 25.6408L6.75068 28.2797ZM3.10924 18.7572L7.76457 21.3438L22.8899 13.452L18.2346 10.8655L3.10924 18.7572Z" fill="#1570EF"/>
<path d="M43.3765 17.9861C43.3765 20.4521 41.3965 22.1801 38.1565 22.1801C34.8985 22.1801 32.8645 20.4341 32.6665 17.6981H35.4385C35.5105 19.1201 36.4285 20.0381 38.1025 20.0381C39.4885 20.0381 40.4785 19.4261 40.4785 18.3821C40.4785 17.5721 39.8485 17.0861 38.7505 16.8701L36.6265 16.4561C34.6645 16.0781 33.1525 15.0161 33.1525 12.8741C33.1525 10.5701 35.1865 8.91406 37.9765 8.91406C40.8745 8.91406 42.9985 10.6061 43.1785 13.3061H40.4065C40.3165 11.9561 39.3805 11.0381 38.0125 11.0381C36.6805 11.0381 35.9245 11.7941 35.9245 12.6941C35.9245 13.5761 36.7345 13.9541 37.6705 14.1341L39.8845 14.5841C42.1525 15.0341 43.3765 16.0781 43.3765 17.9861Z" fill="#0A0D12"/>
<path d="M50.5044 19.5701V21.7481C49.8924 22.0541 49.3164 22.1801 48.5784 22.1801C46.5984 22.1801 45.3564 21.0461 45.3564 18.8861V14.5301H43.4124V12.3881H45.3564V9.54406H47.8404V12.3881H50.5944V14.5301H47.8404V18.3101C47.8404 19.4261 48.3444 19.8761 49.2444 19.8761C49.7124 19.8761 50.1444 19.7681 50.5044 19.5701Z" fill="#0A0D12"/>
<path d="M57.1261 22.0001V20.8121C56.4961 21.7121 55.5421 22.1801 54.2281 22.1801C52.2301 22.1801 50.8981 21.0101 50.8981 19.2101C50.8981 17.3381 52.4101 16.3301 55.2181 16.3301C55.7581 16.3301 56.2261 16.3661 56.8201 16.4381V15.8621C56.8201 14.7821 56.2081 14.1521 55.1641 14.1521C54.0841 14.1521 53.4361 14.7821 53.3461 15.8621H51.0961C51.2401 13.6481 52.8421 12.2081 55.1641 12.2081C57.6841 12.2081 59.1601 13.5941 59.1601 15.9521V22.0001H57.1261ZM53.2561 19.1381C53.2561 19.9481 53.8321 20.4521 54.7681 20.4521C56.0461 20.4521 56.8201 19.7501 56.8201 18.6341V17.9501C56.2261 17.8601 55.8121 17.8241 55.3801 17.8241C53.9581 17.8241 53.2561 18.2741 53.2561 19.1381Z" fill="#0A0D12"/>
<path d="M64.6462 22.1801C61.8742 22.1801 59.9662 20.1281 59.9662 17.1941C59.9662 14.3141 61.9462 12.2081 64.6462 12.2081C67.1482 12.2081 69.0022 13.9001 69.3082 16.4921H66.6802C66.5542 15.2141 65.7802 14.4221 64.6462 14.4221C63.3502 14.4221 62.5222 15.4841 62.5222 17.1941C62.5222 18.9221 63.3322 19.9661 64.6462 19.9661C65.7982 19.9661 66.5362 19.2101 66.6802 17.8961H69.3082C69.0202 20.5421 67.2202 22.1801 64.6462 22.1801Z" fill="#0A0D12"/>
<path d="M72.6965 22.0001H70.1945V9.07606H72.6965V16.4561L76.2065 12.3881H79.0865L75.1085 16.9961L79.5545 22.0001H76.3685L72.6965 17.5361V22.0001Z" fill="#0A0D12"/>
<path d="M89.0249 17.1941C89.0249 14.3501 90.6989 12.2081 93.2909 12.2081C94.4429 12.2081 95.4149 12.7121 96.1349 13.6301V9.07606H98.6189V22.0001H96.3329V20.6141C95.5769 21.6221 94.5329 22.1801 93.2909 22.1801C90.6989 22.1801 89.0249 20.0021 89.0249 17.1941ZM91.5989 17.1941C91.5989 18.9941 92.6249 19.9481 93.8489 19.9481C95.0909 19.9481 96.1169 18.9761 96.1169 17.1581C96.1169 15.3401 95.0729 14.4221 93.8489 14.4221C92.6249 14.4221 91.5989 15.3581 91.5989 17.1941Z" fill="#0A0D12"/>
<path d="M111.742 22.0001H103.39V9.07606H106.126V19.5341H111.742V22.0001Z" fill="#0A0D12"/>
<path d="M118.408 22.0001V20.8121C117.778 21.7121 116.824 22.1801 115.51 22.1801C113.512 22.1801 112.18 21.0101 112.18 19.2101C112.18 17.3381 113.692 16.3301 116.5 16.3301C117.04 16.3301 117.508 16.3661 118.102 16.4381V15.8621C118.102 14.7821 117.49 14.1521 116.446 14.1521C115.366 14.1521 114.718 14.7821 114.628 15.8621H112.378C112.522 13.6481 114.124 12.2081 116.446 12.2081C118.966 12.2081 120.442 13.5941 120.442 15.9521V22.0001H118.408ZM114.538 19.1381C114.538 19.9481 115.114 20.4521 116.05 20.4521C117.328 20.4521 118.102 19.7501 118.102 18.6341V17.9501C117.508 17.8601 117.094 17.8241 116.662 17.8241C115.24 17.8241 114.538 18.2741 114.538 19.1381Z" fill="#0A0D12"/>
<path d="M131.472 17.1941C131.472 20.0021 129.798 22.1801 127.206 22.1801C125.964 22.1801 124.92 21.6221 124.182 20.6141V22.0001H121.878V9.07606H124.38V13.6301C125.082 12.6941 126.054 12.2081 127.206 12.2081C129.798 12.2081 131.472 14.3501 131.472 17.1941ZM128.898 17.1941C128.898 15.3581 127.872 14.4221 126.648 14.4221C125.442 14.4221 124.398 15.3401 124.398 17.1581C124.398 18.9761 125.406 19.9481 126.648 19.9481C127.872 19.9481 128.898 18.9941 128.898 17.1941Z" fill="#0A0D12"/>
<path d="M84.1263 22.1621C86.7543 22.1621 88.6083 20.6141 88.6263 18.4181H86.1963C86.1243 19.5161 85.3323 20.1821 84.0903 20.1821C82.7943 20.1821 82.0383 19.5341 82.0383 18.4541C82.0383 17.3921 82.9203 16.7621 84.4143 16.7621H85.7283V14.7821H84.5583C83.3343 14.7821 82.5963 14.1701 82.5963 13.1801C82.5963 12.2261 83.2263 11.6321 84.2703 11.6321C85.2963 11.6321 85.9443 12.2801 85.9623 13.3421H88.3923C88.3743 11.2361 86.5383 9.65206 84.1443 9.65206C81.5883 9.65206 80.0223 11.0381 80.0223 13.0001C80.0223 14.1161 80.6703 14.9981 81.8403 15.6101C80.3283 16.0961 79.4643 17.0681 79.4643 18.3821C79.4643 20.6321 81.3363 22.1621 84.1263 22.1621Z" fill="#0A0D12"/>
</svg>
